<?xml version="1.0" encoding="utf-8" standalone="no"?>
<!DOCTYPE svg PUBLIC "-//W3C//DTD SVG 1.1//EN"
  "http://www.w3.org/Graphics/SVG/1.1/DTD/svg11.dtd">
<!-- Created with matplotlib (https://matplotlib.org/) -->
<svg height="643.619688pt" version="1.1" viewBox="0 0 375.2875 643.619688" width="375.2875pt" xmlns="http://www.w3.org/2000/svg" xmlns:xlink="http://www.w3.org/1999/xlink">
 <defs>
  <style type="text/css">
*{stroke-linecap:butt;stroke-linejoin:round;}
  </style>
 </defs>
 <g id="figure_1">
  <g id="patch_1">
   <path d="M 0 643.619687 
L 375.2875 643.619687 
L 375.2875 0 
L 0 0 
z
" style="fill:none;"/>
  </g>
  <g id="axes_1">
   <g id="patch_2">
    <path d="M 33.2875 224.64 
L 368.0875 224.64 
L 368.0875 7.2 
L 33.2875 7.2 
z
" style="fill:#ffffff;"/>
   </g>
   <g id="patch_3">
    <path clip-path="url(#p487c7bbf87)" d="M 36.6355 224.64 
L 43.3315 224.64 
L 43.3315 17.554286 
L 36.6355 17.554286 
z
" style="fill:#1f77b4;"/>
   </g>
   <g id="patch_4">
    <path clip-path="url(#p487c7bbf87)" d="M 50.0275 224.64 
L 56.7235 224.64 
L 56.7235 104.515547 
L 50.0275 104.515547 
z
" style="fill:#1f77b4;"/>
   </g>
   <g id="patch_5">
    <path clip-path="url(#p487c7bbf87)" d="M 63.4195 224.64 
L 70.1155 224.64 
L 70.1155 114.832984 
L 63.4195 114.832984 
z
" style="fill:#1f77b4;"/>
   </g>
   <g id="patch_6">
    <path clip-path="url(#p487c7bbf87)" d="M 76.8115 224.64 
L 83.5075 224.64 
L 83.5075 119.254743 
L 76.8115 119.254743 
z
" style="fill:#1f77b4;"/>
   </g>
   <g id="patch_7">
    <path clip-path="url(#p487c7bbf87)" d="M 90.2035 224.64 
L 96.8995 224.64 
L 96.8995 146.522257 
L 90.2035 146.522257 
z
" style="fill:#1f77b4;"/>
   </g>
   <g id="patch_8">
    <path clip-path="url(#p487c7bbf87)" d="M 103.5955 224.64 
L 110.2915 224.64 
L 110.2915 151.680976 
L 103.5955 151.680976 
z
" style="fill:#1f77b4;"/>
   </g>
   <g id="patch_9">
    <path clip-path="url(#p487c7bbf87)" d="M 116.9875 224.64 
L 123.6835 224.64 
L 123.6835 154.997295 
L 116.9875 154.997295 
z
" style="fill:#1f77b4;"/>
   </g>
   <g id="patch_10">
    <path clip-path="url(#p487c7bbf87)" d="M 130.3795 224.64 
L 137.0755 224.64 
L 137.0755 156.839695 
L 130.3795 156.839695 
z
" style="fill:#1f77b4;"/>
   </g>
   <g id="patch_11">
    <path clip-path="url(#p487c7bbf87)" d="M 143.7715 224.64 
L 150.4675 224.64 
L 150.4675 161.261454 
L 143.7715 161.261454 
z
" style="fill:#1f77b4;"/>
   </g>
   <g id="patch_12">
    <path clip-path="url(#p487c7bbf87)" d="M 157.1635 224.64 
L 163.8595 224.64 
L 163.8595 162.366894 
L 157.1635 162.366894 
z
" style="fill:#1f77b4;"/>
   </g>
   <g id="patch_13">
    <path clip-path="url(#p487c7bbf87)" d="M 170.5555 224.64 
L 177.2515 224.64 
L 177.2515 167.525613 
L 170.5555 167.525613 
z
" style="fill:#1f77b4;"/>
   </g>
   <g id="patch_14">
    <path clip-path="url(#p487c7bbf87)" d="M 183.9475 224.64 
L 190.6435 224.64 
L 190.6435 169.736492 
L 183.9475 169.736492 
z
" style="fill:#1f77b4;"/>
   </g>
   <g id="patch_15">
    <path clip-path="url(#p487c7bbf87)" d="M 197.3395 224.64 
L 204.0355 224.64 
L 204.0355 172.315852 
L 197.3395 172.315852 
z
" style="fill:#1f77b4;"/>
   </g>
   <g id="patch_16">
    <path clip-path="url(#p487c7bbf87)" d="M 210.7315 224.64 
L 217.4275 224.64 
L 217.4275 172.684331 
L 210.7315 172.684331 
z
" style="fill:#1f77b4;"/>
   </g>
   <g id="patch_17">
    <path clip-path="url(#p487c7bbf87)" d="M 224.1235 224.64 
L 230.8195 224.64 
L 230.8195 174.158251 
L 224.1235 174.158251 
z
" style="fill:#1f77b4;"/>
   </g>
   <g id="patch_18">
    <path clip-path="url(#p487c7bbf87)" d="M 237.5155 224.64 
L 244.2115 224.64 
L 244.2115 180.79089 
L 237.5155 180.79089 
z
" style="fill:#1f77b4;"/>
   </g>
   <g id="patch_19">
    <path clip-path="url(#p487c7bbf87)" d="M 250.9075 224.64 
L 257.6035 224.64 
L 257.6035 180.79089 
L 250.9075 180.79089 
z
" style="fill:#1f77b4;"/>
   </g>
   <g id="patch_20">
    <path clip-path="url(#p487c7bbf87)" d="M 264.2995 224.64 
L 270.9955 224.64 
L 270.9955 181.15937 
L 264.2995 181.15937 
z
" style="fill:#1f77b4;"/>
   </g>
   <g id="patch_21">
    <path clip-path="url(#p487c7bbf87)" d="M 277.6915 224.64 
L 284.3875 224.64 
L 284.3875 187.055048 
L 277.6915 187.055048 
z
" style="fill:#1f77b4;"/>
   </g>
   <g id="patch_22">
    <path clip-path="url(#p487c7bbf87)" d="M 291.0835 224.64 
L 297.7795 224.64 
L 297.7795 188.528968 
L 291.0835 188.528968 
z
" style="fill:#1f77b4;"/>
   </g>
   <g id="patch_23">
    <path clip-path="url(#p487c7bbf87)" d="M 304.4755 224.64 
L 311.1715 224.64 
L 311.1715 191.476807 
L 304.4755 191.476807 
z
" style="fill:#1f77b4;"/>
   </g>
   <g id="patch_24">
    <path clip-path="url(#p487c7bbf87)" d="M 317.8675 224.64 
L 324.5635 224.64 
L 324.5635 191.845287 
L 317.8675 191.845287 
z
" style="fill:#1f77b4;"/>
   </g>
   <g id="patch_25">
    <path clip-path="url(#p487c7bbf87)" d="M 331.2595 224.64 
L 337.9555 224.64 
L 337.9555 192.582247 
L 331.2595 192.582247 
z
" style="fill:#1f77b4;"/>
   </g>
   <g id="patch_26">
    <path clip-path="url(#p487c7bbf87)" d="M 344.6515 224.64 
L 351.3475 224.64 
L 351.3475 196.267046 
L 344.6515 196.267046 
z
" style="fill:#1f77b4;"/>
   </g>
   <g id="patch_27">
    <path clip-path="url(#p487c7bbf87)" d="M 358.0435 224.64 
L 364.7395 224.64 
L 364.7395 196.635526 
L 358.0435 196.635526 
z
" style="fill:#1f77b4;"/>
   </g>
   <g id="matplotlib.axis_1">
    <g id="xtick_1">
     <g id="line2d_1">
      <defs>
       <path d="M 0 0 
L 0 3.5 
" id="m858c130ca2" style="stroke:#000000;stroke-width:0.8;"/>
      </defs>
      <g>
       <use style="stroke:#000000;stroke-width:0.8;" x="39.9835" xlink:href="#m858c130ca2" y="224.64"/>
      </g>
     </g>
     <g id="text_1">
      <!-- No Reply -->
      <defs>
       <path d="M 9.8125 72.90625 
L 23.09375 72.90625 
L 55.421875 11.921875 
L 55.421875 72.90625 
L 64.984375 72.90625 
L 64.984375 0 
L 51.703125 0 
L 19.390625 60.984375 
L 19.390625 0 
L 9.8125 0 
z
" id="DejaVuSans-78"/>
       <path d="M 30.609375 48.390625 
Q 23.390625 48.390625 19.1875 42.75 
Q 14.984375 37.109375 14.984375 27.296875 
Q 14.984375 17.484375 19.15625 11.84375 
Q 23.34375 6.203125 30.609375 6.203125 
Q 37.796875 6.203125 41.984375 11.859375 
Q 46.1875 17.53125 46.1875 27.296875 
Q 46.1875 37.015625 41.984375 42.703125 
Q 37.796875 48.390625 30.609375 48.390625 
z
M 30.609375 56 
Q 42.328125 56 49.015625 48.375 
Q 55.71875 40.765625 55.71875 27.296875 
Q 55.71875 13.875 49.015625 6.21875 
Q 42.328125 -1.421875 30.609375 -1.421875 
Q 18.84375 -1.421875 12.171875 6.21875 
Q 5.515625 13.875 5.515625 27.296875 
Q 5.515625 40.765625 12.171875 48.375 
Q 18.84375 56 30.609375 56 
z
" id="DejaVuSans-111"/>
       <path id="DejaVuSans-32"/>
       <path d="M 44.390625 34.1875 
Q 47.5625 33.109375 50.5625 29.59375 
Q 53.5625 26.078125 56.59375 19.921875 
L 66.609375 0 
L 56 0 
L 46.6875 18.703125 
Q 43.0625 26.03125 39.671875 28.421875 
Q 36.28125 30.8125 30.421875 30.8125 
L 19.671875 30.8125 
L 19.671875 0 
L 9.8125 0 
L 9.8125 72.90625 
L 32.078125 72.90625 
Q 44.578125 72.90625 50.734375 67.671875 
Q 56.890625 62.453125 56.890625 51.90625 
Q 56.890625 45.015625 53.6875 40.46875 
Q 50.484375 35.9375 44.390625 34.1875 
z
M 19.671875 64.796875 
L 19.671875 38.921875 
L 32.078125 38.921875 
Q 39.203125 38.921875 42.84375 42.21875 
Q 46.484375 45.515625 46.484375 51.90625 
Q 46.484375 58.296875 42.84375 61.546875 
Q 39.203125 64.796875 32.078125 64.796875 
z
" id="DejaVuSans-82"/>
       <path d="M 56.203125 29.59375 
L 56.203125 25.203125 
L 14.890625 25.203125 
Q 15.484375 15.921875 20.484375 11.0625 
Q 25.484375 6.203125 34.421875 6.203125 
Q 39.59375 6.203125 44.453125 7.46875 
Q 49.3125 8.734375 54.109375 11.28125 
L 54.109375 2.78125 
Q 49.265625 0.734375 44.1875 -0.34375 
Q 39.109375 -1.421875 33.890625 -1.421875 
Q 20.796875 -1.421875 13.15625 6.1875 
Q 5.515625 13.8125 5.515625 26.8125 
Q 5.515625 40.234375 12.765625 48.109375 
Q 20.015625 56 32.328125 56 
Q 43.359375 56 49.78125 48.890625 
Q 56.203125 41.796875 56.203125 29.59375 
z
M 47.21875 32.234375 
Q 47.125 39.59375 43.09375 43.984375 
Q 39.0625 48.390625 32.421875 48.390625 
Q 24.90625 48.390625 20.390625 44.140625 
Q 15.875 39.890625 15.1875 32.171875 
z
" id="DejaVuSans-101"/>
       <path d="M 18.109375 8.203125 
L 18.109375 -20.796875 
L 9.078125 -20.796875 
L 9.078125 54.6875 
L 18.109375 54.6875 
L 18.109375 46.390625 
Q 20.953125 51.265625 25.265625 53.625 
Q 29.59375 56 35.59375 56 
Q 45.5625 56 51.78125 48.09375 
Q 58.015625 40.1875 58.015625 27.296875 
Q 58.015625 14.40625 51.78125 6.484375 
Q 45.5625 -1.421875 35.59375 -1.421875 
Q 29.59375 -1.421875 25.265625 0.953125 
Q 20.953125 3.328125 18.109375 8.203125 
z
M 48.6875 27.296875 
Q 48.6875 37.203125 44.609375 42.84375 
Q 40.53125 48.484375 33.40625 48.484375 
Q 26.265625 48.484375 22.1875 42.84375 
Q 18.109375 37.203125 18.109375 27.296875 
Q 18.109375 17.390625 22.1875 11.75 
Q 26.265625 6.109375 33.40625 6.109375 
Q 40.53125 6.109375 44.609375 11.75 
Q 48.6875 17.390625 48.6875 27.296875 
z
" id="DejaVuSans-112"/>
       <path d="M 9.421875 75.984375 
L 18.40625 75.984375 
L 18.40625 0 
L 9.421875 0 
z
" id="DejaVuSans-108"/>
       <path d="M 32.171875 -5.078125 
Q 28.375 -14.84375 24.75 -17.8125 
Q 21.140625 -20.796875 15.09375 -20.796875 
L 7.90625 -20.796875 
L 7.90625 -13.28125 
L 13.1875 -13.28125 
Q 16.890625 -13.28125 18.9375 -11.515625 
Q 21 -9.765625 23.484375 -3.21875 
L 25.09375 0.875 
L 2.984375 54.6875 
L 12.5 54.6875 
L 29.59375 11.921875 
L 46.6875 54.6875 
L 56.203125 54.6875 
z
" id="DejaVuSans-121"/>
      </defs>
      <g transform="translate(42.742875 276.115)rotate(-90)scale(0.1 -0.1)">
       <use xlink:href="#DejaVuSans-78"/>
       <use x="74.804688" xlink:href="#DejaVuSans-111"/>
       <use x="135.986328" xlink:href="#DejaVuSans-32"/>
       <use x="167.773438" xlink:href="#DejaVuSans-82"/>
       <use x="232.755859" xlink:href="#DejaVuSans-101"/>
       <use x="294.279297" xlink:href="#DejaVuSans-112"/>
       <use x="357.755859" xlink:href="#DejaVuSans-108"/>
       <use x="385.539062" xlink:href="#DejaVuSans-121"/>
      </g>
     </g>
    </g>
    <g id="xtick_2">
     <g id="line2d_2">
      <g>
       <use style="stroke:#000000;stroke-width:0.8;" x="53.3755" xlink:href="#m858c130ca2" y="224.64"/>
      </g>
     </g>
     <g id="text_2">
      <!-- Lynn Segal -->
      <defs>
       <path d="M 9.8125 72.90625 
L 19.671875 72.90625 
L 19.671875 8.296875 
L 55.171875 8.296875 
L 55.171875 0 
L 9.8125 0 
z
" id="DejaVuSans-76"/>
       <path d="M 54.890625 33.015625 
L 54.890625 0 
L 45.90625 0 
L 45.90625 32.71875 
Q 45.90625 40.484375 42.875 44.328125 
Q 39.84375 48.1875 33.796875 48.1875 
Q 26.515625 48.1875 22.3125 43.546875 
Q 18.109375 38.921875 18.109375 30.90625 
L 18.109375 0 
L 9.078125 0 
L 9.078125 54.6875 
L 18.109375 54.6875 
L 18.109375 46.1875 
Q 21.34375 51.125 25.703125 53.5625 
Q 30.078125 56 35.796875 56 
Q 45.21875 56 50.046875 50.171875 
Q 54.890625 44.34375 54.890625 33.015625 
z
" id="DejaVuSans-110"/>
       <path d="M 53.515625 70.515625 
L 53.515625 60.890625 
Q 47.90625 63.578125 42.921875 64.890625 
Q 37.9375 66.21875 33.296875 66.21875 
Q 25.25 66.21875 20.875 63.09375 
Q 16.5 59.96875 16.5 54.203125 
Q 16.5 49.359375 19.40625 46.890625 
Q 22.3125 44.4375 30.421875 42.921875 
L 36.375 41.703125 
Q 47.40625 39.59375 52.65625 34.296875 
Q 57.90625 29 57.90625 20.125 
Q 57.90625 9.515625 50.796875 4.046875 
Q 43.703125 -1.421875 29.984375 -1.421875 
Q 24.8125 -1.421875 18.96875 -0.25 
Q 13.140625 0.921875 6.890625 3.21875 
L 6.890625 13.375 
Q 12.890625 10.015625 18.65625 8.296875 
Q 24.421875 6.59375 29.984375 6.59375 
Q 38.421875 6.59375 43.015625 9.90625 
Q 47.609375 13.234375 47.609375 19.390625 
Q 47.609375 24.75 44.3125 27.78125 
Q 41.015625 30.8125 33.5 32.328125 
L 27.484375 33.5 
Q 16.453125 35.6875 11.515625 40.375 
Q 6.59375 45.0625 6.59375 53.421875 
Q 6.59375 63.09375 13.40625 68.65625 
Q 20.21875 74.21875 32.171875 74.21875 
Q 37.3125 74.21875 42.625 73.28125 
Q 47.953125 72.359375 53.515625 70.515625 
z
" id="DejaVuSans-83"/>
       <path d="M 45.40625 27.984375 
Q 45.40625 37.75 41.375 43.109375 
Q 37.359375 48.484375 30.078125 48.484375 
Q 22.859375 48.484375 18.828125 43.109375 
Q 14.796875 37.75 14.796875 27.984375 
Q 14.796875 18.265625 18.828125 12.890625 
Q 22.859375 7.515625 30.078125 7.515625 
Q 37.359375 7.515625 41.375 12.890625 
Q 45.40625 18.265625 45.40625 27.984375 
z
M 54.390625 6.78125 
Q 54.390625 -7.171875 48.1875 -13.984375 
Q 42 -20.796875 29.203125 -20.796875 
Q 24.46875 -20.796875 20.265625 -20.09375 
Q 16.0625 -19.390625 12.109375 -17.921875 
L 12.109375 -9.1875 
Q 16.0625 -11.328125 19.921875 -12.34375 
Q 23.78125 -13.375 27.78125 -13.375 
Q 36.625 -13.375 41.015625 -8.765625 
Q 45.40625 -4.15625 45.40625 5.171875 
L 45.40625 9.625 
Q 42.625 4.78125 38.28125 2.390625 
Q 33.9375 0 27.875 0 
Q 17.828125 0 11.671875 7.65625 
Q 5.515625 15.328125 5.515625 27.984375 
Q 5.515625 40.671875 11.671875 48.328125 
Q 17.828125 56 27.875 56 
Q 33.9375 56 38.28125 53.609375 
Q 42.625 51.21875 45.40625 46.390625 
L 45.40625 54.6875 
L 54.390625 54.6875 
z
" id="DejaVuSans-103"/>
       <path d="M 34.28125 27.484375 
Q 23.390625 27.484375 19.1875 25 
Q 14.984375 22.515625 14.984375 16.5 
Q 14.984375 11.71875 18.140625 8.90625 
Q 21.296875 6.109375 26.703125 6.109375 
Q 34.1875 6.109375 38.703125 11.40625 
Q 43.21875 16.703125 43.21875 25.484375 
L 43.21875 27.484375 
z
M 52.203125 31.203125 
L 52.203125 0 
L 43.21875 0 
L 43.21875 8.296875 
Q 40.140625 3.328125 35.546875 0.953125 
Q 30.953125 -1.421875 24.3125 -1.421875 
Q 15.921875 -1.421875 10.953125 3.296875 
Q 6 8.015625 6 15.921875 
Q 6 25.140625 12.171875 29.828125 
Q 18.359375 34.515625 30.609375 34.515625 
L 43.21875 34.515625 
L 43.21875 35.40625 
Q 43.21875 41.609375 39.140625 45 
Q 35.0625 48.390625 27.6875 48.390625 
Q 23 48.390625 18.546875 47.265625 
Q 14.109375 46.140625 10.015625 43.890625 
L 10.015625 52.203125 
Q 14.9375 54.109375 19.578125 55.046875 
Q 24.21875 56 28.609375 56 
Q 40.484375 56 46.34375 49.84375 
Q 52.203125 43.703125 52.203125 31.203125 
z
" id="DejaVuSans-97"/>
      </defs>
      <g transform="translate(56.134875 285.8275)rotate(-90)scale(0.1 -0.1)">
       <use xlink:href="#DejaVuSans-76"/>
       <use x="46.587891" xlink:href="#DejaVuSans-121"/>
       <use x="105.767578" xlink:href="#DejaVuSans-110"/>
       <use x="169.146484" xlink:href="#DejaVuSans-110"/>
       <use x="232.525391" xlink:href="#DejaVuSans-32"/>
       <use x="264.3125" xlink:href="#DejaVuSans-83"/>
       <use x="327.789062" xlink:href="#DejaVuSans-101"/>
       <use x="389.3125" xlink:href="#DejaVuSans-103"/>
       <use x="452.789062" xlink:href="#DejaVuSans-97"/>
       <use x="514.068359" xlink:href="#DejaVuSans-108"/>
      </g>
     </g>
    </g>
    <g id="xtick_3">
     <g id="line2d_3">
      <g>
       <use style="stroke:#000000;stroke-width:0.8;" x="66.7675" xlink:href="#m858c130ca2" y="224.64"/>
      </g>
     </g>
     <g id="text_3">
      <!-- Brautigam, Jane -->
      <defs>
       <path d="M 19.671875 34.8125 
L 19.671875 8.109375 
L 35.5 8.109375 
Q 43.453125 8.109375 47.28125 11.40625 
Q 51.125 14.703125 51.125 21.484375 
Q 51.125 28.328125 47.28125 31.5625 
Q 43.453125 34.8125 35.5 34.8125 
z
M 19.671875 64.796875 
L 19.671875 42.828125 
L 34.28125 42.828125 
Q 41.5 42.828125 45.03125 45.53125 
Q 48.578125 48.25 48.578125 53.8125 
Q 48.578125 59.328125 45.03125 62.0625 
Q 41.5 64.796875 34.28125 64.796875 
z
M 9.8125 72.90625 
L 35.015625 72.90625 
Q 46.296875 72.90625 52.390625 68.21875 
Q 58.5 63.53125 58.5 54.890625 
Q 58.5 48.1875 55.375 44.234375 
Q 52.25 40.28125 46.1875 39.3125 
Q 53.46875 37.75 57.5 32.78125 
Q 61.53125 27.828125 61.53125 20.40625 
Q 61.53125 10.640625 54.890625 5.3125 
Q 48.25 0 35.984375 0 
L 9.8125 0 
z
" id="DejaVuSans-66"/>
       <path d="M 41.109375 46.296875 
Q 39.59375 47.171875 37.8125 47.578125 
Q 36.03125 48 33.890625 48 
Q 26.265625 48 22.1875 43.046875 
Q 18.109375 38.09375 18.109375 28.8125 
L 18.109375 0 
L 9.078125 0 
L 9.078125 54.6875 
L 18.109375 54.6875 
L 18.109375 46.1875 
Q 20.953125 51.171875 25.484375 53.578125 
Q 30.03125 56 36.53125 56 
Q 37.453125 56 38.578125 55.875 
Q 39.703125 55.765625 41.0625 55.515625 
z
" id="DejaVuSans-114"/>
       <path d="M 8.5 21.578125 
L 8.5 54.6875 
L 17.484375 54.6875 
L 17.484375 21.921875 
Q 17.484375 14.15625 20.5 10.265625 
Q 23.53125 6.390625 29.59375 6.390625 
Q 36.859375 6.390625 41.078125 11.03125 
Q 45.3125 15.671875 45.3125 23.6875 
L 45.3125 54.6875 
L 54.296875 54.6875 
L 54.296875 0 
L 45.3125 0 
L 45.3125 8.40625 
Q 42.046875 3.421875 37.71875 1 
Q 33.40625 -1.421875 27.6875 -1.421875 
Q 18.265625 -1.421875 13.375 4.4375 
Q 8.5 10.296875 8.5 21.578125 
z
M 31.109375 56 
z
" id="DejaVuSans-117"/>
       <path d="M 18.3125 70.21875 
L 18.3125 54.6875 
L 36.8125 54.6875 
L 36.8125 47.703125 
L 18.3125 47.703125 
L 18.3125 18.015625 
Q 18.3125 11.328125 20.140625 9.421875 
Q 21.96875 7.515625 27.59375 7.515625 
L 36.8125 7.515625 
L 36.8125 0 
L 27.59375 0 
Q 17.1875 0 13.234375 3.875 
Q 9.28125 7.765625 9.28125 18.015625 
L 9.28125 47.703125 
L 2.6875 47.703125 
L 2.6875 54.6875 
L 9.28125 54.6875 
L 9.28125 70.21875 
z
" id="DejaVuSans-116"/>
       <path d="M 9.421875 54.6875 
L 18.40625 54.6875 
L 18.40625 0 
L 9.421875 0 
z
M 9.421875 75.984375 
L 18.40625 75.984375 
L 18.40625 64.59375 
L 9.421875 64.59375 
z
" id="DejaVuSans-105"/>
       <path d="M 52 44.1875 
Q 55.375 50.25 60.0625 53.125 
Q 64.75 56 71.09375 56 
Q 79.640625 56 84.28125 50.015625 
Q 88.921875 44.046875 88.921875 33.015625 
L 88.921875 0 
L 79.890625 0 
L 79.890625 32.71875 
Q 79.890625 40.578125 77.09375 44.375 
Q 74.3125 48.1875 68.609375 48.1875 
Q 61.625 48.1875 57.5625 43.546875 
Q 53.515625 38.921875 53.515625 30.90625 
L 53.515625 0 
L 44.484375 0 
L 44.484375 32.71875 
Q 44.484375 40.625 41.703125 44.40625 
Q 38.921875 48.1875 33.109375 48.1875 
Q 26.21875 48.1875 22.15625 43.53125 
Q 18.109375 38.875 18.109375 30.90625 
L 18.109375 0 
L 9.078125 0 
L 9.078125 54.6875 
L 18.109375 54.6875 
L 18.109375 46.1875 
Q 21.1875 51.21875 25.484375 53.609375 
Q 29.78125 56 35.6875 56 
Q 41.65625 56 45.828125 52.96875 
Q 50 49.953125 52 44.1875 
z
" id="DejaVuSans-109"/>
       <path d="M 11.71875 12.40625 
L 22.015625 12.40625 
L 22.015625 4 
L 14.015625 -11.625 
L 7.71875 -11.625 
L 11.71875 4 
z
" id="DejaVuSans-44"/>
       <path d="M 9.8125 72.90625 
L 19.671875 72.90625 
L 19.671875 5.078125 
Q 19.671875 -8.109375 14.671875 -14.0625 
Q 9.671875 -20.015625 -1.421875 -20.015625 
L -5.171875 -20.015625 
L -5.171875 -11.71875 
L -2.09375 -11.71875 
Q 4.4375 -11.71875 7.125 -8.046875 
Q 9.8125 -4.390625 9.8125 5.078125 
z
" id="DejaVuSans-74"/>
      </defs>
      <g transform="translate(69.526875 311.918125)rotate(-90)scale(0.1 -0.1)">
       <use xlink:href="#DejaVuSans-66"/>
       <use x="68.603516" xlink:href="#DejaVuSans-114"/>
       <use x="109.716797" xlink:href="#DejaVuSans-97"/>
       <use x="170.996094" xlink:href="#DejaVuSans-117"/>
       <use x="234.375" xlink:href="#DejaVuSans-116"/>
       <use x="273.583984" xlink:href="#DejaVuSans-105"/>
       <use x="301.367188" xlink:href="#DejaVuSans-103"/>
       <use x="364.84375" xlink:href="#DejaVuSans-97"/>
       <use x="426.123047" xlink:href="#DejaVuSans-109"/>
       <use x="523.535156" xlink:href="#DejaVuSans-44"/>
       <use x="555.322266" xlink:href="#DejaVuSans-32"/>
       <use x="587.109375" xlink:href="#DejaVuSans-74"/>
       <use x="616.601562" xlink:href="#DejaVuSans-97"/>
       <use x="677.880859" xlink:href="#DejaVuSans-110"/>
       <use x="741.259766" xlink:href="#DejaVuSans-101"/>
      </g>
     </g>
    </g>
    <g id="xtick_4">
     <g id="line2d_4">
      <g>
       <use style="stroke:#000000;stroke-width:0.8;" x="80.1595" xlink:href="#m858c130ca2" y="224.64"/>
      </g>
     </g>
     <g id="text_4">
      <!-- Petition For Boulder Homeless Services -->
      <defs>
       <path d="M 19.671875 64.796875 
L 19.671875 37.40625 
L 32.078125 37.40625 
Q 38.96875 37.40625 42.71875 40.96875 
Q 46.484375 44.53125 46.484375 51.125 
Q 46.484375 57.671875 42.71875 61.234375 
Q 38.96875 64.796875 32.078125 64.796875 
z
M 9.8125 72.90625 
L 32.078125 72.90625 
Q 44.34375 72.90625 50.609375 67.359375 
Q 56.890625 61.8125 56.890625 51.125 
Q 56.890625 40.328125 50.609375 34.8125 
Q 44.34375 29.296875 32.078125 29.296875 
L 19.671875 29.296875 
L 19.671875 0 
L 9.8125 0 
z
" id="DejaVuSans-80"/>
       <path d="M 9.8125 72.90625 
L 51.703125 72.90625 
L 51.703125 64.59375 
L 19.671875 64.59375 
L 19.671875 43.109375 
L 48.578125 43.109375 
L 48.578125 34.8125 
L 19.671875 34.8125 
L 19.671875 0 
L 9.8125 0 
z
" id="DejaVuSans-70"/>
       <path d="M 45.40625 46.390625 
L 45.40625 75.984375 
L 54.390625 75.984375 
L 54.390625 0 
L 45.40625 0 
L 45.40625 8.203125 
Q 42.578125 3.328125 38.25 0.953125 
Q 33.9375 -1.421875 27.875 -1.421875 
Q 17.96875 -1.421875 11.734375 6.484375 
Q 5.515625 14.40625 5.515625 27.296875 
Q 5.515625 40.1875 11.734375 48.09375 
Q 17.96875 56 27.875 56 
Q 33.9375 56 38.25 53.625 
Q 42.578125 51.265625 45.40625 46.390625 
z
M 14.796875 27.296875 
Q 14.796875 17.390625 18.875 11.75 
Q 22.953125 6.109375 30.078125 6.109375 
Q 37.203125 6.109375 41.296875 11.75 
Q 45.40625 17.390625 45.40625 27.296875 
Q 45.40625 37.203125 41.296875 42.84375 
Q 37.203125 48.484375 30.078125 48.484375 
Q 22.953125 48.484375 18.875 42.84375 
Q 14.796875 37.203125 14.796875 27.296875 
z
" id="DejaVuSans-100"/>
       <path d="M 9.8125 72.90625 
L 19.671875 72.90625 
L 19.671875 43.015625 
L 55.515625 43.015625 
L 55.515625 72.90625 
L 65.375 72.90625 
L 65.375 0 
L 55.515625 0 
L 55.515625 34.71875 
L 19.671875 34.71875 
L 19.671875 0 
L 9.8125 0 
z
" id="DejaVuSans-72"/>
       <path d="M 44.28125 53.078125 
L 44.28125 44.578125 
Q 40.484375 46.53125 36.375 47.5 
Q 32.28125 48.484375 27.875 48.484375 
Q 21.1875 48.484375 17.84375 46.4375 
Q 14.5 44.390625 14.5 40.28125 
Q 14.5 37.15625 16.890625 35.375 
Q 19.28125 33.59375 26.515625 31.984375 
L 29.59375 31.296875 
Q 39.15625 29.25 43.1875 25.515625 
Q 47.21875 21.78125 47.21875 15.09375 
Q 47.21875 7.46875 41.1875 3.015625 
Q 35.15625 -1.421875 24.609375 -1.421875 
Q 20.21875 -1.421875 15.453125 -0.5625 
Q 10.6875 0.296875 5.421875 2 
L 5.421875 11.28125 
Q 10.40625 8.6875 15.234375 7.390625 
Q 20.0625 6.109375 24.8125 6.109375 
Q 31.15625 6.109375 34.5625 8.28125 
Q 37.984375 10.453125 37.984375 14.40625 
Q 37.984375 18.0625 35.515625 20.015625 
Q 33.0625 21.96875 24.703125 23.78125 
L 21.578125 24.515625 
Q 13.234375 26.265625 9.515625 29.90625 
Q 5.8125 33.546875 5.8125 39.890625 
Q 5.8125 47.609375 11.28125 51.796875 
Q 16.75 56 26.8125 56 
Q 31.78125 56 36.171875 55.265625 
Q 40.578125 54.546875 44.28125 53.078125 
z
" id="DejaVuSans-115"/>
       <path d="M 2.984375 54.6875 
L 12.5 54.6875 
L 29.59375 8.796875 
L 46.6875 54.6875 
L 56.203125 54.6875 
L 35.6875 0 
L 23.484375 0 
z
" id="DejaVuSans-118"/>
       <path d="M 48.78125 52.59375 
L 48.78125 44.1875 
Q 44.96875 46.296875 41.140625 47.34375 
Q 37.3125 48.390625 33.40625 48.390625 
Q 24.65625 48.390625 19.8125 42.84375 
Q 14.984375 37.3125 14.984375 27.296875 
Q 14.984375 17.28125 19.8125 11.734375 
Q 24.65625 6.203125 33.40625 6.203125 
Q 37.3125 6.203125 41.140625 7.25 
Q 44.96875 8.296875 48.78125 10.40625 
L 48.78125 2.09375 
Q 45.015625 0.34375 40.984375 -0.53125 
Q 36.96875 -1.421875 32.421875 -1.421875 
Q 20.0625 -1.421875 12.78125 6.34375 
Q 5.515625 14.109375 5.515625 27.296875 
Q 5.515625 40.671875 12.859375 48.328125 
Q 20.21875 56 33.015625 56 
Q 37.15625 56 41.109375 55.140625 
Q 45.0625 54.296875 48.78125 52.59375 
z
" id="DejaVuSans-99"/>
      </defs>
      <g transform="translate(82.918875 427.405625)rotate(-90)scale(0.1 -0.1)">
       <use xlink:href="#DejaVuSans-80"/>
       <use x="56.677734" xlink:href="#DejaVuSans-101"/>
       <use x="118.201172" xlink:href="#DejaVuSans-116"/>
       <use x="157.410156" xlink:href="#DejaVuSans-105"/>
       <use x="185.193359" xlink:href="#DejaVuSans-116"/>
       <use x="224.402344" xlink:href="#DejaVuSans-105"/>
       <use x="252.185547" xlink:href="#DejaVuSans-111"/>
       <use x="313.367188" xlink:href="#DejaVuSans-110"/>
       <use x="376.746094" xlink:href="#DejaVuSans-32"/>
       <use x="408.533203" xlink:href="#DejaVuSans-70"/>
       <use x="462.427734" xlink:href="#DejaVuSans-111"/>
       <use x="523.609375" xlink:href="#DejaVuSans-114"/>
       <use x="564.722656" xlink:href="#DejaVuSans-32"/>
       <use x="596.509766" xlink:href="#DejaVuSans-66"/>
       <use x="665.113281" xlink:href="#DejaVuSans-111"/>
       <use x="726.294922" xlink:href="#DejaVuSans-117"/>
       <use x="789.673828" xlink:href="#DejaVuSans-108"/>
       <use x="817.457031" xlink:href="#DejaVuSans-100"/>
       <use x="880.933594" xlink:href="#DejaVuSans-101"/>
       <use x="942.457031" xlink:href="#DejaVuSans-114"/>
       <use x="983.570312" xlink:href="#DejaVuSans-32"/>
       <use x="1015.357422" xlink:href="#DejaVuSans-72"/>
       <use x="1090.552734" xlink:href="#DejaVuSans-111"/>
       <use x="1151.734375" xlink:href="#DejaVuSans-109"/>
       <use x="1249.146484" xlink:href="#DejaVuSans-101"/>
       <use x="1310.669922" xlink:href="#DejaVuSans-108"/>
       <use x="1338.453125" xlink:href="#DejaVuSans-101"/>
       <use x="1399.976562" xlink:href="#DejaVuSans-115"/>
       <use x="1452.076172" xlink:href="#DejaVuSans-115"/>
       <use x="1504.175781" xlink:href="#DejaVuSans-32"/>
       <use x="1535.962891" xlink:href="#DejaVuSans-83"/>
       <use x="1599.439453" xlink:href="#DejaVuSans-101"/>
       <use x="1660.962891" xlink:href="#DejaVuSans-114"/>
       <use x="1702.076172" xlink:href="#DejaVuSans-118"/>
       <use x="1761.255859" xlink:href="#DejaVuSans-105"/>
       <use x="1789.039062" xlink:href="#DejaVuSans-99"/>
       <use x="1844.019531" xlink:href="#DejaVuSans-101"/>
       <use x="1905.542969" xlink:href="#DejaVuSans-115"/>
      </g>
     </g>
    </g>
    <g id="xtick_5">
     <g id="line2d_5">
      <g>
       <use style="stroke:#000000;stroke-width:0.8;" x="93.5515" xlink:href="#m858c130ca2" y="224.64"/>
      </g>
     </g>
     <g id="text_5">
      <!-- Steve Pomerance -->
      <g transform="translate(96.310875 319.219688)rotate(-90)scale(0.1 -0.1)">
       <use xlink:href="#DejaVuSans-83"/>
       <use x="63.476562" xlink:href="#DejaVuSans-116"/>
       <use x="102.685547" xlink:href="#DejaVuSans-101"/>
       <use x="164.208984" xlink:href="#DejaVuSans-118"/>
       <use x="223.388672" xlink:href="#DejaVuSans-101"/>
       <use x="284.912109" xlink:href="#DejaVuSans-32"/>
       <use x="316.699219" xlink:href="#DejaVuSans-80"/>
       <use x="373.376953" xlink:href="#DejaVuSans-111"/>
       <use x="434.558594" xlink:href="#DejaVuSans-109"/>
       <use x="531.970703" xlink:href="#DejaVuSans-101"/>
       <use x="593.494141" xlink:href="#DejaVuSans-114"/>
       <use x="634.607422" xlink:href="#DejaVuSans-97"/>
       <use x="695.886719" xlink:href="#DejaVuSans-110"/>
       <use x="759.265625" xlink:href="#DejaVuSans-99"/>
       <use x="814.246094" xlink:href="#DejaVuSans-101"/>
      </g>
     </g>
    </g>
    <g id="xtick_6">
     <g id="line2d_6">
      <g>
       <use style="stroke:#000000;stroke-width:0.8;" x="106.9435" xlink:href="#m858c130ca2" y="224.64"/>
      </g>
     </g>
     <g id="text_6">
      <!-- Community Member Supporting HRC/HAB -->
      <defs>
       <path d="M 64.40625 67.28125 
L 64.40625 56.890625 
Q 59.421875 61.53125 53.78125 63.8125 
Q 48.140625 66.109375 41.796875 66.109375 
Q 29.296875 66.109375 22.65625 58.46875 
Q 16.015625 50.828125 16.015625 36.375 
Q 16.015625 21.96875 22.65625 14.328125 
Q 29.296875 6.6875 41.796875 6.6875 
Q 48.140625 6.6875 53.78125 8.984375 
Q 59.421875 11.28125 64.40625 15.921875 
L 64.40625 5.609375 
Q 59.234375 2.09375 53.4375 0.328125 
Q 47.65625 -1.421875 41.21875 -1.421875 
Q 24.65625 -1.421875 15.125 8.703125 
Q 5.609375 18.84375 5.609375 36.375 
Q 5.609375 53.953125 15.125 64.078125 
Q 24.65625 74.21875 41.21875 74.21875 
Q 47.75 74.21875 53.53125 72.484375 
Q 59.328125 70.75 64.40625 67.28125 
z
" id="DejaVuSans-67"/>
       <path d="M 9.8125 72.90625 
L 24.515625 72.90625 
L 43.109375 23.296875 
L 61.8125 72.90625 
L 76.515625 72.90625 
L 76.515625 0 
L 66.890625 0 
L 66.890625 64.015625 
L 48.09375 14.015625 
L 38.1875 14.015625 
L 19.390625 64.015625 
L 19.390625 0 
L 9.8125 0 
z
" id="DejaVuSans-77"/>
       <path d="M 48.6875 27.296875 
Q 48.6875 37.203125 44.609375 42.84375 
Q 40.53125 48.484375 33.40625 48.484375 
Q 26.265625 48.484375 22.1875 42.84375 
Q 18.109375 37.203125 18.109375 27.296875 
Q 18.109375 17.390625 22.1875 11.75 
Q 26.265625 6.109375 33.40625 6.109375 
Q 40.53125 6.109375 44.609375 11.75 
Q 48.6875 17.390625 48.6875 27.296875 
z
M 18.109375 46.390625 
Q 20.953125 51.265625 25.265625 53.625 
Q 29.59375 56 35.59375 56 
Q 45.5625 56 51.78125 48.09375 
Q 58.015625 40.1875 58.015625 27.296875 
Q 58.015625 14.40625 51.78125 6.484375 
Q 45.5625 -1.421875 35.59375 -1.421875 
Q 29.59375 -1.421875 25.265625 0.953125 
Q 20.953125 3.328125 18.109375 8.203125 
L 18.109375 0 
L 9.078125 0 
L 9.078125 75.984375 
L 18.109375 75.984375 
z
" id="DejaVuSans-98"/>
       <path d="M 25.390625 72.90625 
L 33.6875 72.90625 
L 8.296875 -9.28125 
L 0 -9.28125 
z
" id="DejaVuSans-47"/>
       <path d="M 34.1875 63.1875 
L 20.796875 26.90625 
L 47.609375 26.90625 
z
M 28.609375 72.90625 
L 39.796875 72.90625 
L 67.578125 0 
L 57.328125 0 
L 50.6875 18.703125 
L 17.828125 18.703125 
L 11.1875 0 
L 0.78125 0 
z
" id="DejaVuSans-65"/>
      </defs>
      <g transform="translate(109.702875 440.722813)rotate(-90)scale(0.1 -0.1)">
       <use xlink:href="#DejaVuSans-67"/>
       <use x="69.824219" xlink:href="#DejaVuSans-111"/>
       <use x="131.005859" xlink:href="#DejaVuSans-109"/>
       <use x="228.417969" xlink:href="#DejaVuSans-109"/>
       <use x="325.830078" xlink:href="#DejaVuSans-117"/>
       <use x="389.208984" xlink:href="#DejaVuSans-110"/>
       <use x="452.587891" xlink:href="#DejaVuSans-105"/>
       <use x="480.371094" xlink:href="#DejaVuSans-116"/>
       <use x="519.580078" xlink:href="#DejaVuSans-121"/>
       <use x="578.759766" xlink:href="#DejaVuSans-32"/>
       <use x="610.546875" xlink:href="#DejaVuSans-77"/>
       <use x="696.826172" xlink:href="#DejaVuSans-101"/>
       <use x="758.349609" xlink:href="#DejaVuSans-109"/>
       <use x="855.761719" xlink:href="#DejaVuSans-98"/>
       <use x="919.238281" xlink:href="#DejaVuSans-101"/>
       <use x="980.761719" xlink:href="#DejaVuSans-114"/>
       <use x="1021.875" xlink:href="#DejaVuSans-32"/>
       <use x="1053.662109" xlink:href="#DejaVuSans-83"/>
       <use x="1117.138672" xlink:href="#DejaVuSans-117"/>
       <use x="1180.517578" xlink:href="#DejaVuSans-112"/>
       <use x="1243.994141" xlink:href="#DejaVuSans-112"/>
       <use x="1307.470703" xlink:href="#DejaVuSans-111"/>
       <use x="1368.652344" xlink:href="#DejaVuSans-114"/>
       <use x="1409.765625" xlink:href="#DejaVuSans-116"/>
       <use x="1448.974609" xlink:href="#DejaVuSans-105"/>
       <use x="1476.757812" xlink:href="#DejaVuSans-110"/>
       <use x="1540.136719" xlink:href="#DejaVuSans-103"/>
       <use x="1603.613281" xlink:href="#DejaVuSans-32"/>
       <use x="1635.400391" xlink:href="#DejaVuSans-72"/>
       <use x="1710.595703" xlink:href="#DejaVuSans-82"/>
       <use x="1775.078125" xlink:href="#DejaVuSans-67"/>
       <use x="1844.902344" xlink:href="#DejaVuSans-47"/>
       <use x="1878.59375" xlink:href="#DejaVuSans-72"/>
       <use x="1953.789062" xlink:href="#DejaVuSans-65"/>
       <use x="2022.197266" xlink:href="#DejaVuSans-66"/>
      </g>
     </g>
    </g>
    <g id="xtick_7">
     <g id="line2d_7">
      <g>
       <use style="stroke:#000000;stroke-width:0.8;" x="120.3355" xlink:href="#m858c130ca2" y="224.64"/>
      </g>
     </g>
     <g id="text_7">
      <!-- Morzel, Lisa -->
      <defs>
       <path d="M 5.515625 54.6875 
L 48.1875 54.6875 
L 48.1875 46.484375 
L 14.40625 7.171875 
L 48.1875 7.171875 
L 48.1875 0 
L 4.296875 0 
L 4.296875 8.203125 
L 38.09375 47.515625 
L 5.515625 47.515625 
z
" id="DejaVuSans-122"/>
      </defs>
      <g transform="translate(123.094875 290.72125)rotate(-90)scale(0.1 -0.1)">
       <use xlink:href="#DejaVuSans-77"/>
       <use x="86.279297" xlink:href="#DejaVuSans-111"/>
       <use x="147.460938" xlink:href="#DejaVuSans-114"/>
       <use x="188.574219" xlink:href="#DejaVuSans-122"/>
       <use x="241.064453" xlink:href="#DejaVuSans-101"/>
       <use x="302.587891" xlink:href="#DejaVuSans-108"/>
       <use x="330.371094" xlink:href="#DejaVuSans-44"/>
       <use x="362.158203" xlink:href="#DejaVuSans-32"/>
       <use x="393.945312" xlink:href="#DejaVuSans-76"/>
       <use x="449.658203" xlink:href="#DejaVuSans-105"/>
       <use x="477.441406" xlink:href="#DejaVuSans-115"/>
       <use x="529.541016" xlink:href="#DejaVuSans-97"/>
      </g>
     </g>
    </g>
    <g id="xtick_8">
     <g id="line2d_8">
      <g>
       <use style="stroke:#000000;stroke-width:0.8;" x="133.7275" xlink:href="#m858c130ca2" y="224.64"/>
      </g>
     </g>
     <g id="text_8">
      <!-- David Yuhas -->
      <defs>
       <path d="M 19.671875 64.796875 
L 19.671875 8.109375 
L 31.59375 8.109375 
Q 46.6875 8.109375 53.6875 14.9375 
Q 60.6875 21.78125 60.6875 36.53125 
Q 60.6875 51.171875 53.6875 57.984375 
Q 46.6875 64.796875 31.59375 64.796875 
z
M 9.8125 72.90625 
L 30.078125 72.90625 
Q 51.265625 72.90625 61.171875 64.09375 
Q 71.09375 55.28125 71.09375 36.53125 
Q 71.09375 17.671875 61.125 8.828125 
Q 51.171875 0 30.078125 0 
L 9.8125 0 
z
" id="DejaVuSans-68"/>
       <path d="M -0.203125 72.90625 
L 10.40625 72.90625 
L 30.609375 42.921875 
L 50.6875 72.90625 
L 61.28125 72.90625 
L 35.5 34.71875 
L 35.5 0 
L 25.59375 0 
L 25.59375 34.71875 
z
" id="DejaVuSans-89"/>
       <path d="M 54.890625 33.015625 
L 54.890625 0 
L 45.90625 0 
L 45.90625 32.71875 
Q 45.90625 40.484375 42.875 44.328125 
Q 39.84375 48.1875 33.796875 48.1875 
Q 26.515625 48.1875 22.3125 43.546875 
Q 18.109375 38.921875 18.109375 30.90625 
L 18.109375 0 
L 9.078125 0 
L 9.078125 75.984375 
L 18.109375 75.984375 
L 18.109375 46.1875 
Q 21.34375 51.125 25.703125 53.5625 
Q 30.078125 56 35.796875 56 
Q 45.21875 56 50.046875 50.171875 
Q 54.890625 44.34375 54.890625 33.015625 
z
" id="DejaVuSans-104"/>
      </defs>
      <g transform="translate(136.486875 292.661875)rotate(-90)scale(0.1 -0.1)">
       <use xlink:href="#DejaVuSans-68"/>
       <use x="77.001953" xlink:href="#DejaVuSans-97"/>
       <use x="138.28125" xlink:href="#DejaVuSans-118"/>
       <use x="197.460938" xlink:href="#DejaVuSans-105"/>
       <use x="225.244141" xlink:href="#DejaVuSans-100"/>
       <use x="288.720703" xlink:href="#DejaVuSans-32"/>
       <use x="320.507812" xlink:href="#DejaVuSans-89"/>
       <use x="370.091797" xlink:href="#DejaVuSans-117"/>
       <use x="433.470703" xlink:href="#DejaVuSans-104"/>
       <use x="496.849609" xlink:href="#DejaVuSans-97"/>
       <use x="558.128906" xlink:href="#DejaVuSans-115"/>
      </g>
     </g>
    </g>
    <g id="xtick_9">
     <g id="line2d_9">
      <g>
       <use style="stroke:#000000;stroke-width:0.8;" x="147.1195" xlink:href="#m858c130ca2" y="224.64"/>
      </g>
     </g>
     <g id="text_9">
      <!-- Aulabaugh, Shannon -->
      <g transform="translate(149.878875 335.525938)rotate(-90)scale(0.1 -0.1)">
       <use xlink:href="#DejaVuSans-65"/>
       <use x="68.408203" xlink:href="#DejaVuSans-117"/>
       <use x="131.787109" xlink:href="#DejaVuSans-108"/>
       <use x="159.570312" xlink:href="#DejaVuSans-97"/>
       <use x="220.849609" xlink:href="#DejaVuSans-98"/>
       <use x="284.326172" xlink:href="#DejaVuSans-97"/>
       <use x="345.605469" xlink:href="#DejaVuSans-117"/>
       <use x="408.984375" xlink:href="#DejaVuSans-103"/>
       <use x="472.460938" xlink:href="#DejaVuSans-104"/>
       <use x="535.839844" xlink:href="#DejaVuSans-44"/>
       <use x="567.626953" xlink:href="#DejaVuSans-32"/>
       <use x="599.414062" xlink:href="#DejaVuSans-83"/>
       <use x="662.890625" xlink:href="#DejaVuSans-104"/>
       <use x="726.269531" xlink:href="#DejaVuSans-97"/>
       <use x="787.548828" xlink:href="#DejaVuSans-110"/>
       <use x="850.927734" xlink:href="#DejaVuSans-110"/>
       <use x="914.306641" xlink:href="#DejaVuSans-111"/>
       <use x="975.488281" xlink:href="#DejaVuSans-110"/>
      </g>
     </g>
    </g>
    <g id="xtick_10">
     <g id="line2d_10">
      <g>
       <use style="stroke:#000000;stroke-width:0.8;" x="160.5115" xlink:href="#m858c130ca2" y="224.64"/>
      </g>
     </g>
     <g id="text_10">
      <!-- Domain postMaster address -->
      <g transform="translate(163.270875 371.829063)rotate(-90)scale(0.1 -0.1)">
       <use xlink:href="#DejaVuSans-68"/>
       <use x="77.001953" xlink:href="#DejaVuSans-111"/>
       <use x="138.183594" xlink:href="#DejaVuSans-109"/>
       <use x="235.595703" xlink:href="#DejaVuSans-97"/>
       <use x="296.875" xlink:href="#DejaVuSans-105"/>
       <use x="324.658203" xlink:href="#DejaVuSans-110"/>
       <use x="388.037109" xlink:href="#DejaVuSans-32"/>
       <use x="419.824219" xlink:href="#DejaVuSans-112"/>
       <use x="483.300781" xlink:href="#DejaVuSans-111"/>
       <use x="544.482422" xlink:href="#DejaVuSans-115"/>
       <use x="596.582031" xlink:href="#DejaVuSans-116"/>
       <use x="635.791016" xlink:href="#DejaVuSans-77"/>
       <use x="722.070312" xlink:href="#DejaVuSans-97"/>
       <use x="783.349609" xlink:href="#DejaVuSans-115"/>
       <use x="835.449219" xlink:href="#DejaVuSans-116"/>
       <use x="874.658203" xlink:href="#DejaVuSans-101"/>
       <use x="936.181641" xlink:href="#DejaVuSans-114"/>
       <use x="977.294922" xlink:href="#DejaVuSans-32"/>
       <use x="1009.082031" xlink:href="#DejaVuSans-97"/>
       <use x="1070.361328" xlink:href="#DejaVuSans-100"/>
       <use x="1133.837891" xlink:href="#DejaVuSans-100"/>
       <use x="1197.314453" xlink:href="#DejaVuSans-114"/>
       <use x="1236.177734" xlink:href="#DejaVuSans-101"/>
       <use x="1297.701172" xlink:href="#DejaVuSans-115"/>
       <use x="1349.800781" xlink:href="#DejaVuSans-115"/>
      </g>
     </g>
    </g>
    <g id="xtick_11">
     <g id="line2d_11">
      <g>
       <use style="stroke:#000000;stroke-width:0.8;" x="173.9035" xlink:href="#m858c130ca2" y="224.64"/>
      </g>
     </g>
     <g id="text_11">
      <!-- Max Weller -->
      <defs>
       <path d="M 54.890625 54.6875 
L 35.109375 28.078125 
L 55.90625 0 
L 45.3125 0 
L 29.390625 21.484375 
L 13.484375 0 
L 2.875 0 
L 24.125 28.609375 
L 4.6875 54.6875 
L 15.28125 54.6875 
L 29.78125 35.203125 
L 44.28125 54.6875 
z
" id="DejaVuSans-120"/>
       <path d="M 3.328125 72.90625 
L 13.28125 72.90625 
L 28.609375 11.28125 
L 43.890625 72.90625 
L 54.984375 72.90625 
L 70.3125 11.28125 
L 85.59375 72.90625 
L 95.609375 72.90625 
L 77.296875 0 
L 64.890625 0 
L 49.515625 63.28125 
L 33.984375 0 
L 21.578125 0 
z
" id="DejaVuSans-87"/>
      </defs>
      <g transform="translate(176.662875 286.766563)rotate(-90)scale(0.1 -0.1)">
       <use xlink:href="#DejaVuSans-77"/>
       <use x="86.279297" xlink:href="#DejaVuSans-97"/>
       <use x="147.558594" xlink:href="#DejaVuSans-120"/>
       <use x="206.738281" xlink:href="#DejaVuSans-32"/>
       <use x="238.525391" xlink:href="#DejaVuSans-87"/>
       <use x="331.527344" xlink:href="#DejaVuSans-101"/>
       <use x="393.050781" xlink:href="#DejaVuSans-108"/>
       <use x="420.833984" xlink:href="#DejaVuSans-108"/>
       <use x="448.617188" xlink:href="#DejaVuSans-101"/>
       <use x="510.140625" xlink:href="#DejaVuSans-114"/>
      </g>
     </g>
    </g>
    <g id="xtick_12">
     <g id="line2d_12">
      <g>
       <use style="stroke:#000000;stroke-width:0.8;" x="187.2955" xlink:href="#m858c130ca2" y="224.64"/>
      </g>
     </g>
     <g id="text_12">
      <!-- [bdc4c1de08e3749f2b943770fc34668f4efaf3d76b4cf9880aa3a29808c9c5d3] -->
      <defs>
       <path d="M 8.59375 75.984375 
L 29.296875 75.984375 
L 29.296875 69 
L 17.578125 69 
L 17.578125 -6.203125 
L 29.296875 -6.203125 
L 29.296875 -13.1875 
L 8.59375 -13.1875 
z
" id="DejaVuSans-91"/>
       <path d="M 37.796875 64.3125 
L 12.890625 25.390625 
L 37.796875 25.390625 
z
M 35.203125 72.90625 
L 47.609375 72.90625 
L 47.609375 25.390625 
L 58.015625 25.390625 
L 58.015625 17.1875 
L 47.609375 17.1875 
L 47.609375 0 
L 37.796875 0 
L 37.796875 17.1875 
L 4.890625 17.1875 
L 4.890625 26.703125 
z
" id="DejaVuSans-52"/>
       <path d="M 12.40625 8.296875 
L 28.515625 8.296875 
L 28.515625 63.921875 
L 10.984375 60.40625 
L 10.984375 69.390625 
L 28.421875 72.90625 
L 38.28125 72.90625 
L 38.28125 8.296875 
L 54.390625 8.296875 
L 54.390625 0 
L 12.40625 0 
z
" id="DejaVuSans-49"/>
       <path d="M 31.78125 66.40625 
Q 24.171875 66.40625 20.328125 58.90625 
Q 16.5 51.421875 16.5 36.375 
Q 16.5 21.390625 20.328125 13.890625 
Q 24.171875 6.390625 31.78125 6.390625 
Q 39.453125 6.390625 43.28125 13.890625 
Q 47.125 21.390625 47.125 36.375 
Q 47.125 51.421875 43.28125 58.90625 
Q 39.453125 66.40625 31.78125 66.40625 
z
M 31.78125 74.21875 
Q 44.046875 74.21875 50.515625 64.515625 
Q 56.984375 54.828125 56.984375 36.375 
Q 56.984375 17.96875 50.515625 8.265625 
Q 44.046875 -1.421875 31.78125 -1.421875 
Q 19.53125 -1.421875 13.0625 8.265625 
Q 6.59375 17.96875 6.59375 36.375 
Q 6.59375 54.828125 13.0625 64.515625 
Q 19.53125 74.21875 31.78125 74.21875 
z
" id="DejaVuSans-48"/>
       <path d="M 31.78125 34.625 
Q 24.75 34.625 20.71875 30.859375 
Q 16.703125 27.09375 16.703125 20.515625 
Q 16.703125 13.921875 20.71875 10.15625 
Q 24.75 6.390625 31.78125 6.390625 
Q 38.8125 6.390625 42.859375 10.171875 
Q 46.921875 13.96875 46.921875 20.515625 
Q 46.921875 27.09375 42.890625 30.859375 
Q 38.875 34.625 31.78125 34.625 
z
M 21.921875 38.8125 
Q 15.578125 40.375 12.03125 44.71875 
Q 8.5 49.078125 8.5 55.328125 
Q 8.5 64.0625 14.71875 69.140625 
Q 20.953125 74.21875 31.78125 74.21875 
Q 42.671875 74.21875 48.875 69.140625 
Q 55.078125 64.0625 55.078125 55.328125 
Q 55.078125 49.078125 51.53125 44.71875 
Q 48 40.375 41.703125 38.8125 
Q 48.828125 37.15625 52.796875 32.3125 
Q 56.78125 27.484375 56.78125 20.515625 
Q 56.78125 9.90625 50.3125 4.234375 
Q 43.84375 -1.421875 31.78125 -1.421875 
Q 19.734375 -1.421875 13.25 4.234375 
Q 6.78125 9.90625 6.78125 20.515625 
Q 6.78125 27.484375 10.78125 32.3125 
Q 14.796875 37.15625 21.921875 38.8125 
z
M 18.3125 54.390625 
Q 18.3125 48.734375 21.84375 45.5625 
Q 25.390625 42.390625 31.78125 42.390625 
Q 38.140625 42.390625 41.71875 45.5625 
Q 45.3125 48.734375 45.3125 54.390625 
Q 45.3125 60.0625 41.71875 63.234375 
Q 38.140625 66.40625 31.78125 66.40625 
Q 25.390625 66.40625 21.84375 63.234375 
Q 18.3125 60.0625 18.3125 54.390625 
z
" id="DejaVuSans-56"/>
       <path d="M 40.578125 39.3125 
Q 47.65625 37.796875 51.625 33 
Q 55.609375 28.21875 55.609375 21.1875 
Q 55.609375 10.40625 48.1875 4.484375 
Q 40.765625 -1.421875 27.09375 -1.421875 
Q 22.515625 -1.421875 17.65625 -0.515625 
Q 12.796875 0.390625 7.625 2.203125 
L 7.625 11.71875 
Q 11.71875 9.328125 16.59375 8.109375 
Q 21.484375 6.890625 26.8125 6.890625 
Q 36.078125 6.890625 40.9375 10.546875 
Q 45.796875 14.203125 45.796875 21.1875 
Q 45.796875 27.640625 41.28125 31.265625 
Q 36.765625 34.90625 28.71875 34.90625 
L 20.21875 34.90625 
L 20.21875 43.015625 
L 29.109375 43.015625 
Q 36.375 43.015625 40.234375 45.921875 
Q 44.09375 48.828125 44.09375 54.296875 
Q 44.09375 59.90625 40.109375 62.90625 
Q 36.140625 65.921875 28.71875 65.921875 
Q 24.65625 65.921875 20.015625 65.03125 
Q 15.375 64.15625 9.8125 62.3125 
L 9.8125 71.09375 
Q 15.4375 72.65625 20.34375 73.4375 
Q 25.25 74.21875 29.59375 74.21875 
Q 40.828125 74.21875 47.359375 69.109375 
Q 53.90625 64.015625 53.90625 55.328125 
Q 53.90625 49.265625 50.4375 45.09375 
Q 46.96875 40.921875 40.578125 39.3125 
z
" id="DejaVuSans-51"/>
       <path d="M 8.203125 72.90625 
L 55.078125 72.90625 
L 55.078125 68.703125 
L 28.609375 0 
L 18.3125 0 
L 43.21875 64.59375 
L 8.203125 64.59375 
z
" id="DejaVuSans-55"/>
       <path d="M 10.984375 1.515625 
L 10.984375 10.5 
Q 14.703125 8.734375 18.5 7.8125 
Q 22.3125 6.890625 25.984375 6.890625 
Q 35.75 6.890625 40.890625 13.453125 
Q 46.046875 20.015625 46.78125 33.40625 
Q 43.953125 29.203125 39.59375 26.953125 
Q 35.25 24.703125 29.984375 24.703125 
Q 19.046875 24.703125 12.671875 31.3125 
Q 6.296875 37.9375 6.296875 49.421875 
Q 6.296875 60.640625 12.9375 67.421875 
Q 19.578125 74.21875 30.609375 74.21875 
Q 43.265625 74.21875 49.921875 64.515625 
Q 56.59375 54.828125 56.59375 36.375 
Q 56.59375 19.140625 48.40625 8.859375 
Q 40.234375 -1.421875 26.421875 -1.421875 
Q 22.703125 -1.421875 18.890625 -0.6875 
Q 15.09375 0.046875 10.984375 1.515625 
z
M 30.609375 32.421875 
Q 37.25 32.421875 41.125 36.953125 
Q 45.015625 41.5 45.015625 49.421875 
Q 45.015625 57.28125 41.125 61.84375 
Q 37.25 66.40625 30.609375 66.40625 
Q 23.96875 66.40625 20.09375 61.84375 
Q 16.21875 57.28125 16.21875 49.421875 
Q 16.21875 41.5 20.09375 36.953125 
Q 23.96875 32.421875 30.609375 32.421875 
z
" id="DejaVuSans-57"/>
       <path d="M 37.109375 75.984375 
L 37.109375 68.5 
L 28.515625 68.5 
Q 23.6875 68.5 21.796875 66.546875 
Q 19.921875 64.59375 19.921875 59.515625 
L 19.921875 54.6875 
L 34.71875 54.6875 
L 34.71875 47.703125 
L 19.921875 47.703125 
L 19.921875 0 
L 10.890625 0 
L 10.890625 47.703125 
L 2.296875 47.703125 
L 2.296875 54.6875 
L 10.890625 54.6875 
L 10.890625 58.5 
Q 10.890625 67.625 15.140625 71.796875 
Q 19.390625 75.984375 28.609375 75.984375 
z
" id="DejaVuSans-102"/>
       <path d="M 19.1875 8.296875 
L 53.609375 8.296875 
L 53.609375 0 
L 7.328125 0 
L 7.328125 8.296875 
Q 12.9375 14.109375 22.625 23.890625 
Q 32.328125 33.6875 34.8125 36.53125 
Q 39.546875 41.84375 41.421875 45.53125 
Q 43.3125 49.21875 43.3125 52.78125 
Q 43.3125 58.59375 39.234375 62.25 
Q 35.15625 65.921875 28.609375 65.921875 
Q 23.96875 65.921875 18.8125 64.3125 
Q 13.671875 62.703125 7.8125 59.421875 
L 7.8125 69.390625 
Q 13.765625 71.78125 18.9375 73 
Q 24.125 74.21875 28.421875 74.21875 
Q 39.75 74.21875 46.484375 68.546875 
Q 53.21875 62.890625 53.21875 53.421875 
Q 53.21875 48.921875 51.53125 44.890625 
Q 49.859375 40.875 45.40625 35.40625 
Q 44.1875 33.984375 37.640625 27.21875 
Q 31.109375 20.453125 19.1875 8.296875 
z
" id="DejaVuSans-50"/>
       <path d="M 33.015625 40.375 
Q 26.375 40.375 22.484375 35.828125 
Q 18.609375 31.296875 18.609375 23.390625 
Q 18.609375 15.53125 22.484375 10.953125 
Q 26.375 6.390625 33.015625 6.390625 
Q 39.65625 6.390625 43.53125 10.953125 
Q 47.40625 15.53125 47.40625 23.390625 
Q 47.40625 31.296875 43.53125 35.828125 
Q 39.65625 40.375 33.015625 40.375 
z
M 52.59375 71.296875 
L 52.59375 62.3125 
Q 48.875 64.0625 45.09375 64.984375 
Q 41.3125 65.921875 37.59375 65.921875 
Q 27.828125 65.921875 22.671875 59.328125 
Q 17.53125 52.734375 16.796875 39.40625 
Q 19.671875 43.65625 24.015625 45.921875 
Q 28.375 48.1875 33.59375 48.1875 
Q 44.578125 48.1875 50.953125 41.515625 
Q 57.328125 34.859375 57.328125 23.390625 
Q 57.328125 12.15625 50.6875 5.359375 
Q 44.046875 -1.421875 33.015625 -1.421875 
Q 20.359375 -1.421875 13.671875 8.265625 
Q 6.984375 17.96875 6.984375 36.375 
Q 6.984375 53.65625 15.1875 63.9375 
Q 23.390625 74.21875 37.203125 74.21875 
Q 40.921875 74.21875 44.703125 73.484375 
Q 48.484375 72.75 52.59375 71.296875 
z
" id="DejaVuSans-54"/>
       <path d="M 10.796875 72.90625 
L 49.515625 72.90625 
L 49.515625 64.59375 
L 19.828125 64.59375 
L 19.828125 46.734375 
Q 21.96875 47.46875 24.109375 47.828125 
Q 26.265625 48.1875 28.421875 48.1875 
Q 40.625 48.1875 47.75 41.5 
Q 54.890625 34.8125 54.890625 23.390625 
Q 54.890625 11.625 47.5625 5.09375 
Q 40.234375 -1.421875 26.90625 -1.421875 
Q 22.3125 -1.421875 17.546875 -0.640625 
Q 12.796875 0.140625 7.71875 1.703125 
L 7.71875 11.625 
Q 12.109375 9.234375 16.796875 8.0625 
Q 21.484375 6.890625 26.703125 6.890625 
Q 35.15625 6.890625 40.078125 11.328125 
Q 45.015625 15.765625 45.015625 23.390625 
Q 45.015625 31 40.078125 35.4375 
Q 35.15625 39.890625 26.703125 39.890625 
Q 22.75 39.890625 18.8125 39.015625 
Q 14.890625 38.140625 10.796875 36.28125 
z
" id="DejaVuSans-53"/>
       <path d="M 30.421875 75.984375 
L 30.421875 -13.1875 
L 9.71875 -13.1875 
L 9.71875 -6.203125 
L 21.390625 -6.203125 
L 21.390625 69 
L 9.71875 69 
L 9.71875 75.984375 
z
" id="DejaVuSans-93"/>
      </defs>
      <g transform="translate(190.054875 622.741563)rotate(-90)scale(0.1 -0.1)">
       <use xlink:href="#DejaVuSans-91"/>
       <use x="39.013672" xlink:href="#DejaVuSans-98"/>
       <use x="102.490234" xlink:href="#DejaVuSans-100"/>
       <use x="165.966797" xlink:href="#DejaVuSans-99"/>
       <use x="220.947266" xlink:href="#DejaVuSans-52"/>
       <use x="284.570312" xlink:href="#DejaVuSans-99"/>
       <use x="339.550781" xlink:href="#DejaVuSans-49"/>
       <use x="403.173828" xlink:href="#DejaVuSans-100"/>
       <use x="466.650391" xlink:href="#DejaVuSans-101"/>
       <use x="528.173828" xlink:href="#DejaVuSans-48"/>
       <use x="591.796875" xlink:href="#DejaVuSans-56"/>
       <use x="655.419922" xlink:href="#DejaVuSans-101"/>
       <use x="716.943359" xlink:href="#DejaVuSans-51"/>
       <use x="780.566406" xlink:href="#DejaVuSans-55"/>
       <use x="844.189453" xlink:href="#DejaVuSans-52"/>
       <use x="907.8125" xlink:href="#DejaVuSans-57"/>
       <use x="971.435547" xlink:href="#DejaVuSans-102"/>
       <use x="1006.640625" xlink:href="#DejaVuSans-50"/>
       <use x="1070.263672" xlink:href="#DejaVuSans-98"/>
       <use x="1133.740234" xlink:href="#DejaVuSans-57"/>
       <use x="1197.363281" xlink:href="#DejaVuSans-52"/>
       <use x="1260.986328" xlink:href="#DejaVuSans-51"/>
       <use x="1324.609375" xlink:href="#DejaVuSans-55"/>
       <use x="1388.232422" xlink:href="#DejaVuSans-55"/>
       <use x="1451.855469" xlink:href="#DejaVuSans-48"/>
       <use x="1515.478516" xlink:href="#DejaVuSans-102"/>
       <use x="1550.683594" xlink:href="#DejaVuSans-99"/>
       <use x="1605.664062" xlink:href="#DejaVuSans-51"/>
       <use x="1669.287109" xlink:href="#DejaVuSans-52"/>
       <use x="1732.910156" xlink:href="#DejaVuSans-54"/>
       <use x="1796.533203" xlink:href="#DejaVuSans-54"/>
       <use x="1860.15625" xlink:href="#DejaVuSans-56"/>
       <use x="1923.779297" xlink:href="#DejaVuSans-102"/>
       <use x="1958.984375" xlink:href="#DejaVuSans-52"/>
       <use x="2022.607422" xlink:href="#DejaVuSans-101"/>
       <use x="2084.130859" xlink:href="#DejaVuSans-102"/>
       <use x="2119.335938" xlink:href="#DejaVuSans-97"/>
       <use x="2180.615234" xlink:href="#DejaVuSans-102"/>
       <use x="2215.820312" xlink:href="#DejaVuSans-51"/>
       <use x="2279.443359" xlink:href="#DejaVuSans-100"/>
       <use x="2342.919922" xlink:href="#DejaVuSans-55"/>
       <use x="2406.542969" xlink:href="#DejaVuSans-54"/>
       <use x="2470.166016" xlink:href="#DejaVuSans-98"/>
       <use x="2533.642578" xlink:href="#DejaVuSans-52"/>
       <use x="2597.265625" xlink:href="#DejaVuSans-99"/>
       <use x="2652.246094" xlink:href="#DejaVuSans-102"/>
       <use x="2687.451172" xlink:href="#DejaVuSans-57"/>
       <use x="2751.074219" xlink:href="#DejaVuSans-56"/>
       <use x="2814.697266" xlink:href="#DejaVuSans-56"/>
       <use x="2878.320312" xlink:href="#DejaVuSans-48"/>
       <use x="2941.943359" xlink:href="#DejaVuSans-97"/>
       <use x="3003.222656" xlink:href="#DejaVuSans-97"/>
       <use x="3064.501953" xlink:href="#DejaVuSans-51"/>
       <use x="3128.125" xlink:href="#DejaVuSans-97"/>
       <use x="3189.404297" xlink:href="#DejaVuSans-50"/>
       <use x="3253.027344" xlink:href="#DejaVuSans-57"/>
       <use x="3316.650391" xlink:href="#DejaVuSans-56"/>
       <use x="3380.273438" xlink:href="#DejaVuSans-48"/>
       <use x="3443.896484" xlink:href="#DejaVuSans-56"/>
       <use x="3507.519531" xlink:href="#DejaVuSans-99"/>
       <use x="3562.5" xlink:href="#DejaVuSans-57"/>
       <use x="3626.123047" xlink:href="#DejaVuSans-99"/>
       <use x="3681.103516" xlink:href="#DejaVuSans-53"/>
       <use x="3744.726562" xlink:href="#DejaVuSans-100"/>
       <use x="3808.203125" xlink:href="#DejaVuSans-51"/>
       <use x="3871.826172" xlink:href="#DejaVuSans-93"/>
      </g>
     </g>
    </g>
    <g id="xtick_13">
     <g id="line2d_13">
      <g>
       <use style="stroke:#000000;stroke-width:0.8;" x="200.6875" xlink:href="#m858c130ca2" y="224.64"/>
      </g>
     </g>
     <g id="text_13">
      <!-- Evan Ravitz -->
      <defs>
       <path d="M 9.8125 72.90625 
L 55.90625 72.90625 
L 55.90625 64.59375 
L 19.671875 64.59375 
L 19.671875 43.015625 
L 54.390625 43.015625 
L 54.390625 34.71875 
L 19.671875 34.71875 
L 19.671875 8.296875 
L 56.78125 8.296875 
L 56.78125 0 
L 9.8125 0 
z
" id="DejaVuSans-69"/>
      </defs>
      <g transform="translate(203.446875 290.238438)rotate(-90)scale(0.1 -0.1)">
       <use xlink:href="#DejaVuSans-69"/>
       <use x="63.183594" xlink:href="#DejaVuSans-118"/>
       <use x="122.363281" xlink:href="#DejaVuSans-97"/>
       <use x="183.642578" xlink:href="#DejaVuSans-110"/>
       <use x="247.021484" xlink:href="#DejaVuSans-32"/>
       <use x="278.808594" xlink:href="#DejaVuSans-82"/>
       <use x="346.041016" xlink:href="#DejaVuSans-97"/>
       <use x="407.320312" xlink:href="#DejaVuSans-118"/>
       <use x="466.5" xlink:href="#DejaVuSans-105"/>
       <use x="494.283203" xlink:href="#DejaVuSans-116"/>
       <use x="533.492188" xlink:href="#DejaVuSans-122"/>
      </g>
     </g>
    </g>
    <g id="xtick_14">
     <g id="line2d_14">
      <g>
       <use style="stroke:#000000;stroke-width:0.8;" x="214.0795" xlink:href="#m858c130ca2" y="224.64"/>
      </g>
     </g>
     <g id="text_14">
      <!-- Mark Gelband -->
      <defs>
       <path d="M 9.078125 75.984375 
L 18.109375 75.984375 
L 18.109375 31.109375 
L 44.921875 54.6875 
L 56.390625 54.6875 
L 27.390625 29.109375 
L 57.625 0 
L 45.90625 0 
L 18.109375 26.703125 
L 18.109375 0 
L 9.078125 0 
z
" id="DejaVuSans-107"/>
       <path d="M 59.515625 10.40625 
L 59.515625 29.984375 
L 43.40625 29.984375 
L 43.40625 38.09375 
L 69.28125 38.09375 
L 69.28125 6.78125 
Q 63.578125 2.734375 56.6875 0.65625 
Q 49.8125 -1.421875 42 -1.421875 
Q 24.90625 -1.421875 15.25 8.5625 
Q 5.609375 18.5625 5.609375 36.375 
Q 5.609375 54.25 15.25 64.234375 
Q 24.90625 74.21875 42 74.21875 
Q 49.125 74.21875 55.546875 72.453125 
Q 61.96875 70.703125 67.390625 67.28125 
L 67.390625 56.78125 
Q 61.921875 61.421875 55.765625 63.765625 
Q 49.609375 66.109375 42.828125 66.109375 
Q 29.4375 66.109375 22.71875 58.640625 
Q 16.015625 51.171875 16.015625 36.375 
Q 16.015625 21.625 22.71875 14.15625 
Q 29.4375 6.6875 42.828125 6.6875 
Q 48.046875 6.6875 52.140625 7.59375 
Q 56.25 8.5 59.515625 10.40625 
z
" id="DejaVuSans-71"/>
      </defs>
      <g transform="translate(216.838875 301.318125)rotate(-90)scale(0.1 -0.1)">
       <use xlink:href="#DejaVuSans-77"/>
       <use x="86.279297" xlink:href="#DejaVuSans-97"/>
       <use x="147.558594" xlink:href="#DejaVuSans-114"/>
       <use x="188.671875" xlink:href="#DejaVuSans-107"/>
       <use x="246.582031" xlink:href="#DejaVuSans-32"/>
       <use x="278.369141" xlink:href="#DejaVuSans-71"/>
       <use x="355.859375" xlink:href="#DejaVuSans-101"/>
       <use x="417.382812" xlink:href="#DejaVuSans-108"/>
       <use x="445.166016" xlink:href="#DejaVuSans-98"/>
       <use x="508.642578" xlink:href="#DejaVuSans-97"/>
       <use x="569.921875" xlink:href="#DejaVuSans-110"/>
       <use x="633.300781" xlink:href="#DejaVuSans-100"/>
      </g>
     </g>
    </g>
    <g id="xtick_15">
     <g id="line2d_15">
      <g>
       <use style="stroke:#000000;stroke-width:0.8;" x="227.4715" xlink:href="#m858c130ca2" y="224.64"/>
      </g>
     </g>
     <g id="text_15">
      <!-- Leslie Glustrom -->
      <g transform="translate(230.230875 309.025938)rotate(-90)scale(0.1 -0.1)">
       <use xlink:href="#DejaVuSans-76"/>
       <use x="53.962891" xlink:href="#DejaVuSans-101"/>
       <use x="115.486328" xlink:href="#DejaVuSans-115"/>
       <use x="167.585938" xlink:href="#DejaVuSans-108"/>
       <use x="195.369141" xlink:href="#DejaVuSans-105"/>
       <use x="223.152344" xlink:href="#DejaVuSans-101"/>
       <use x="284.675781" xlink:href="#DejaVuSans-32"/>
       <use x="316.462891" xlink:href="#DejaVuSans-71"/>
       <use x="393.953125" xlink:href="#DejaVuSans-108"/>
       <use x="421.736328" xlink:href="#DejaVuSans-117"/>
       <use x="485.115234" xlink:href="#DejaVuSans-115"/>
       <use x="537.214844" xlink:href="#DejaVuSans-116"/>
       <use x="576.423828" xlink:href="#DejaVuSans-114"/>
       <use x="615.287109" xlink:href="#DejaVuSans-111"/>
       <use x="676.46875" xlink:href="#DejaVuSans-109"/>
      </g>
     </g>
    </g>
    <g id="xtick_16">
     <g id="line2d_16">
      <g>
       <use style="stroke:#000000;stroke-width:0.8;" x="240.8635" xlink:href="#m858c130ca2" y="224.64"/>
      </g>
     </g>
     <g id="text_16">
      <!-- Jann Scott -->
      <g transform="translate(243.622875 282.3775)rotate(-90)scale(0.1 -0.1)">
       <use xlink:href="#DejaVuSans-74"/>
       <use x="29.492188" xlink:href="#DejaVuSans-97"/>
       <use x="90.771484" xlink:href="#DejaVuSans-110"/>
       <use x="154.150391" xlink:href="#DejaVuSans-110"/>
       <use x="217.529297" xlink:href="#DejaVuSans-32"/>
       <use x="249.316406" xlink:href="#DejaVuSans-83"/>
       <use x="312.792969" xlink:href="#DejaVuSans-99"/>
       <use x="367.773438" xlink:href="#DejaVuSans-111"/>
       <use x="428.955078" xlink:href="#DejaVuSans-116"/>
       <use x="468.164062" xlink:href="#DejaVuSans-116"/>
      </g>
     </g>
    </g>
    <g id="xtick_17">
     <g id="line2d_17">
      <g>
       <use style="stroke:#000000;stroke-width:0.8;" x="254.2555" xlink:href="#m858c130ca2" y="224.64"/>
      </g>
     </g>
     <g id="text_17">
      <!-- Carr, Thomas -->
      <defs>
       <path d="M -0.296875 72.90625 
L 61.375 72.90625 
L 61.375 64.59375 
L 35.5 64.59375 
L 35.5 0 
L 25.59375 0 
L 25.59375 64.59375 
L -0.296875 64.59375 
z
" id="DejaVuSans-84"/>
      </defs>
      <g transform="translate(257.014875 298.79625)rotate(-90)scale(0.1 -0.1)">
       <use xlink:href="#DejaVuSans-67"/>
       <use x="69.824219" xlink:href="#DejaVuSans-97"/>
       <use x="131.103516" xlink:href="#DejaVuSans-114"/>
       <use x="170.466797" xlink:href="#DejaVuSans-114"/>
       <use x="211.580078" xlink:href="#DejaVuSans-44"/>
       <use x="243.367188" xlink:href="#DejaVuSans-32"/>
       <use x="275.154297" xlink:href="#DejaVuSans-84"/>
       <use x="336.238281" xlink:href="#DejaVuSans-104"/>
       <use x="399.617188" xlink:href="#DejaVuSans-111"/>
       <use x="460.798828" xlink:href="#DejaVuSans-109"/>
       <use x="558.210938" xlink:href="#DejaVuSans-97"/>
       <use x="619.490234" xlink:href="#DejaVuSans-115"/>
      </g>
     </g>
    </g>
    <g id="xtick_18">
     <g id="line2d_18">
      <g>
       <use style="stroke:#000000;stroke-width:0.8;" x="267.6475" xlink:href="#m858c130ca2" y="224.64"/>
      </g>
     </g>
     <g id="text_18">
      <!-- Darren O'Connor -->
      <defs>
       <path d="M 39.40625 66.21875 
Q 28.65625 66.21875 22.328125 58.203125 
Q 16.015625 50.203125 16.015625 36.375 
Q 16.015625 22.609375 22.328125 14.59375 
Q 28.65625 6.59375 39.40625 6.59375 
Q 50.140625 6.59375 56.421875 14.59375 
Q 62.703125 22.609375 62.703125 36.375 
Q 62.703125 50.203125 56.421875 58.203125 
Q 50.140625 66.21875 39.40625 66.21875 
z
M 39.40625 74.21875 
Q 54.734375 74.21875 63.90625 63.9375 
Q 73.09375 53.65625 73.09375 36.375 
Q 73.09375 19.140625 63.90625 8.859375 
Q 54.734375 -1.421875 39.40625 -1.421875 
Q 24.03125 -1.421875 14.8125 8.828125 
Q 5.609375 19.09375 5.609375 36.375 
Q 5.609375 53.65625 14.8125 63.9375 
Q 24.03125 74.21875 39.40625 74.21875 
z
" id="DejaVuSans-79"/>
       <path d="M 17.921875 72.90625 
L 17.921875 45.796875 
L 9.625 45.796875 
L 9.625 72.90625 
z
" id="DejaVuSans-39"/>
      </defs>
      <g transform="translate(270.406875 315.585313)rotate(-90)scale(0.1 -0.1)">
       <use xlink:href="#DejaVuSans-68"/>
       <use x="77.001953" xlink:href="#DejaVuSans-97"/>
       <use x="138.28125" xlink:href="#DejaVuSans-114"/>
       <use x="177.644531" xlink:href="#DejaVuSans-114"/>
       <use x="216.507812" xlink:href="#DejaVuSans-101"/>
       <use x="278.03125" xlink:href="#DejaVuSans-110"/>
       <use x="341.410156" xlink:href="#DejaVuSans-32"/>
       <use x="373.197266" xlink:href="#DejaVuSans-79"/>
       <use x="451.908203" xlink:href="#DejaVuSans-39"/>
       <use x="479.398438" xlink:href="#DejaVuSans-67"/>
       <use x="549.222656" xlink:href="#DejaVuSans-111"/>
       <use x="610.404297" xlink:href="#DejaVuSans-110"/>
       <use x="673.783203" xlink:href="#DejaVuSans-110"/>
       <use x="737.162109" xlink:href="#DejaVuSans-111"/>
       <use x="798.34375" xlink:href="#DejaVuSans-114"/>
      </g>
     </g>
    </g>
    <g id="xtick_19">
     <g id="line2d_19">
      <g>
       <use style="stroke:#000000;stroke-width:0.8;" x="281.0395" xlink:href="#m858c130ca2" y="224.64"/>
      </g>
     </g>
     <g id="text_19">
      <!-- Weaver,  Sam -->
      <g transform="translate(283.798875 301.155625)rotate(-90)scale(0.1 -0.1)">
       <use xlink:href="#DejaVuSans-87"/>
       <use x="93.001953" xlink:href="#DejaVuSans-101"/>
       <use x="154.525391" xlink:href="#DejaVuSans-97"/>
       <use x="215.804688" xlink:href="#DejaVuSans-118"/>
       <use x="274.984375" xlink:href="#DejaVuSans-101"/>
       <use x="336.507812" xlink:href="#DejaVuSans-114"/>
       <use x="377.621094" xlink:href="#DejaVuSans-44"/>
       <use x="409.408203" xlink:href="#DejaVuSans-32"/>
       <use x="441.195312" xlink:href="#DejaVuSans-32"/>
       <use x="472.982422" xlink:href="#DejaVuSans-83"/>
       <use x="536.458984" xlink:href="#DejaVuSans-97"/>
       <use x="597.738281" xlink:href="#DejaVuSans-109"/>
      </g>
     </g>
    </g>
    <g id="xtick_20">
     <g id="line2d_20">
      <g>
       <use style="stroke:#000000;stroke-width:0.8;" x="294.4315" xlink:href="#m858c130ca2" y="224.64"/>
      </g>
     </g>
     <g id="text_20">
      <!-- Eric Sonja Hansen -->
      <defs>
       <path d="M 18.796875 48.875 
L 8.5 48.875 
L 8.5 57.328125 
L 16.5 72.90625 
L 22.796875 72.90625 
L 18.796875 57.328125 
z
M 38.8125 48.875 
L 28.515625 48.875 
L 28.515625 57.328125 
L 36.53125 72.90625 
L 42.828125 72.90625 
L 38.8125 57.328125 
z
" id="DejaVuSans-8220"/>
       <path d="M 9.421875 54.6875 
L 18.40625 54.6875 
L 18.40625 -0.984375 
Q 18.40625 -11.421875 14.421875 -16.109375 
Q 10.453125 -20.796875 1.609375 -20.796875 
L -1.8125 -20.796875 
L -1.8125 -13.1875 
L 0.59375 -13.1875 
Q 5.71875 -13.1875 7.5625 -10.8125 
Q 9.421875 -8.453125 9.421875 -0.984375 
z
M 9.421875 75.984375 
L 18.40625 75.984375 
L 18.40625 64.59375 
L 9.421875 64.59375 
z
" id="DejaVuSans-106"/>
       <path d="M 12.5 72.90625 
L 22.796875 72.90625 
L 22.796875 64.5 
L 14.796875 48.875 
L 8.5 48.875 
L 12.5 64.5 
z
M 32.515625 72.90625 
L 42.828125 72.90625 
L 42.828125 64.5 
L 34.8125 48.875 
L 28.515625 48.875 
L 32.515625 64.5 
z
" id="DejaVuSans-8221"/>
      </defs>
      <g transform="translate(297.190875 332.461875)rotate(-90)scale(0.1 -0.1)">
       <use xlink:href="#DejaVuSans-69"/>
       <use x="63.183594" xlink:href="#DejaVuSans-114"/>
       <use x="104.296875" xlink:href="#DejaVuSans-105"/>
       <use x="132.080078" xlink:href="#DejaVuSans-99"/>
       <use x="187.060547" xlink:href="#DejaVuSans-32"/>
       <use x="218.847656" xlink:href="#DejaVuSans-8220"/>
       <use x="270.654297" xlink:href="#DejaVuSans-83"/>
       <use x="334.130859" xlink:href="#DejaVuSans-111"/>
       <use x="395.3125" xlink:href="#DejaVuSans-110"/>
       <use x="458.691406" xlink:href="#DejaVuSans-106"/>
       <use x="486.474609" xlink:href="#DejaVuSans-97"/>
       <use x="547.753906" xlink:href="#DejaVuSans-8221"/>
       <use x="599.560547" xlink:href="#DejaVuSans-32"/>
       <use x="631.347656" xlink:href="#DejaVuSans-72"/>
       <use x="706.542969" xlink:href="#DejaVuSans-97"/>
       <use x="767.822266" xlink:href="#DejaVuSans-110"/>
       <use x="831.201172" xlink:href="#DejaVuSans-115"/>
       <use x="883.300781" xlink:href="#DejaVuSans-101"/>
       <use x="944.824219" xlink:href="#DejaVuSans-110"/>
      </g>
     </g>
    </g>
    <g id="xtick_21">
     <g id="line2d_21">
      <g>
       <use style="stroke:#000000;stroke-width:0.8;" x="307.8235" xlink:href="#m858c130ca2" y="224.64"/>
      </g>
     </g>
     <g id="text_21">
      <!-- Firnhaber, Kurt -->
      <defs>
       <path d="M 9.8125 72.90625 
L 19.671875 72.90625 
L 19.671875 42.09375 
L 52.390625 72.90625 
L 65.09375 72.90625 
L 28.90625 38.921875 
L 67.671875 0 
L 54.6875 0 
L 19.671875 35.109375 
L 19.671875 0 
L 9.8125 0 
z
" id="DejaVuSans-75"/>
      </defs>
      <g transform="translate(310.582875 305.579063)rotate(-90)scale(0.1 -0.1)">
       <use xlink:href="#DejaVuSans-70"/>
       <use x="50.269531" xlink:href="#DejaVuSans-105"/>
       <use x="78.052734" xlink:href="#DejaVuSans-114"/>
       <use x="117.416016" xlink:href="#DejaVuSans-110"/>
       <use x="180.794922" xlink:href="#DejaVuSans-104"/>
       <use x="244.173828" xlink:href="#DejaVuSans-97"/>
       <use x="305.453125" xlink:href="#DejaVuSans-98"/>
       <use x="368.929688" xlink:href="#DejaVuSans-101"/>
       <use x="430.453125" xlink:href="#DejaVuSans-114"/>
       <use x="471.566406" xlink:href="#DejaVuSans-44"/>
       <use x="503.353516" xlink:href="#DejaVuSans-32"/>
       <use x="535.140625" xlink:href="#DejaVuSans-75"/>
       <use x="595.716797" xlink:href="#DejaVuSans-117"/>
       <use x="659.095703" xlink:href="#DejaVuSans-114"/>
       <use x="700.208984" xlink:href="#DejaVuSans-116"/>
      </g>
     </g>
    </g>
    <g id="xtick_22">
     <g id="line2d_22">
      <g>
       <use style="stroke:#000000;stroke-width:0.8;" x="321.2155" xlink:href="#m858c130ca2" y="224.64"/>
      </g>
     </g>
     <g id="text_22">
      <!-- Cowern, Bill -->
      <defs>
       <path d="M 4.203125 54.6875 
L 13.1875 54.6875 
L 24.421875 12.015625 
L 35.59375 54.6875 
L 46.1875 54.6875 
L 57.421875 12.015625 
L 68.609375 54.6875 
L 77.59375 54.6875 
L 63.28125 0 
L 52.6875 0 
L 40.921875 44.828125 
L 29.109375 0 
L 18.5 0 
z
" id="DejaVuSans-119"/>
      </defs>
      <g transform="translate(323.974875 290.897813)rotate(-90)scale(0.1 -0.1)">
       <use xlink:href="#DejaVuSans-67"/>
       <use x="69.824219" xlink:href="#DejaVuSans-111"/>
       <use x="131.005859" xlink:href="#DejaVuSans-119"/>
       <use x="212.792969" xlink:href="#DejaVuSans-101"/>
       <use x="274.316406" xlink:href="#DejaVuSans-114"/>
       <use x="313.679688" xlink:href="#DejaVuSans-110"/>
       <use x="377.058594" xlink:href="#DejaVuSans-44"/>
       <use x="408.845703" xlink:href="#DejaVuSans-32"/>
       <use x="440.632812" xlink:href="#DejaVuSans-66"/>
       <use x="509.236328" xlink:href="#DejaVuSans-105"/>
       <use x="537.019531" xlink:href="#DejaVuSans-108"/>
       <use x="564.802734" xlink:href="#DejaVuSans-108"/>
      </g>
     </g>
    </g>
    <g id="xtick_23">
     <g id="line2d_23">
      <g>
       <use style="stroke:#000000;stroke-width:0.8;" x="334.6075" xlink:href="#m858c130ca2" y="224.64"/>
      </g>
     </g>
     <g id="text_23">
      <!-- Rhodes, Alison -->
      <g transform="translate(337.366875 305.174375)rotate(-90)scale(0.1 -0.1)">
       <use xlink:href="#DejaVuSans-82"/>
       <use x="69.482422" xlink:href="#DejaVuSans-104"/>
       <use x="132.861328" xlink:href="#DejaVuSans-111"/>
       <use x="194.042969" xlink:href="#DejaVuSans-100"/>
       <use x="257.519531" xlink:href="#DejaVuSans-101"/>
       <use x="319.042969" xlink:href="#DejaVuSans-115"/>
       <use x="371.142578" xlink:href="#DejaVuSans-44"/>
       <use x="402.929688" xlink:href="#DejaVuSans-32"/>
       <use x="434.716797" xlink:href="#DejaVuSans-65"/>
       <use x="503.125" xlink:href="#DejaVuSans-108"/>
       <use x="530.908203" xlink:href="#DejaVuSans-105"/>
       <use x="558.691406" xlink:href="#DejaVuSans-115"/>
       <use x="610.791016" xlink:href="#DejaVuSans-111"/>
       <use x="671.972656" xlink:href="#DejaVuSans-110"/>
      </g>
     </g>
    </g>
    <g id="xtick_24">
     <g id="line2d_24">
      <g>
       <use style="stroke:#000000;stroke-width:0.8;" x="347.9995" xlink:href="#m858c130ca2" y="224.64"/>
      </g>
     </g>
     <g id="text_24">
      <!-- Herold, Maris -->
      <g transform="translate(350.758875 297.655625)rotate(-90)scale(0.1 -0.1)">
       <use xlink:href="#DejaVuSans-72"/>
       <use x="75.195312" xlink:href="#DejaVuSans-101"/>
       <use x="136.71875" xlink:href="#DejaVuSans-114"/>
       <use x="175.582031" xlink:href="#DejaVuSans-111"/>
       <use x="236.763672" xlink:href="#DejaVuSans-108"/>
       <use x="264.546875" xlink:href="#DejaVuSans-100"/>
       <use x="328.023438" xlink:href="#DejaVuSans-44"/>
       <use x="359.810547" xlink:href="#DejaVuSans-32"/>
       <use x="391.597656" xlink:href="#DejaVuSans-77"/>
       <use x="477.876953" xlink:href="#DejaVuSans-97"/>
       <use x="539.15625" xlink:href="#DejaVuSans-114"/>
       <use x="580.269531" xlink:href="#DejaVuSans-105"/>
       <use x="608.052734" xlink:href="#DejaVuSans-115"/>
      </g>
     </g>
    </g>
    <g id="xtick_25">
     <g id="line2d_25">
      <g>
       <use style="stroke:#000000;stroke-width:0.8;" x="361.3915" xlink:href="#m858c130ca2" y="224.64"/>
      </g>
     </g>
     <g id="text_25">
      <!-- Reimann, Taylor -->
      <g transform="translate(364.150875 311.482188)rotate(-90)scale(0.1 -0.1)">
       <use xlink:href="#DejaVuSans-82"/>
       <use x="64.982422" xlink:href="#DejaVuSans-101"/>
       <use x="126.505859" xlink:href="#DejaVuSans-105"/>
       <use x="154.289062" xlink:href="#DejaVuSans-109"/>
       <use x="251.701172" xlink:href="#DejaVuSans-97"/>
       <use x="312.980469" xlink:href="#DejaVuSans-110"/>
       <use x="376.359375" xlink:href="#DejaVuSans-110"/>
       <use x="439.738281" xlink:href="#DejaVuSans-44"/>
       <use x="471.525391" xlink:href="#DejaVuSans-32"/>
       <use x="503.3125" xlink:href="#DejaVuSans-84"/>
       <use x="547.896484" xlink:href="#DejaVuSans-97"/>
       <use x="609.175781" xlink:href="#DejaVuSans-121"/>
       <use x="668.355469" xlink:href="#DejaVuSans-108"/>
       <use x="696.138672" xlink:href="#DejaVuSans-111"/>
       <use x="757.320312" xlink:href="#DejaVuSans-114"/>
      </g>
     </g>
    </g>
    <g id="text_26">
     <!-- SentFrom -->
     <g transform="translate(176.921875 634.34)scale(0.1 -0.1)">
      <use xlink:href="#DejaVuSans-83"/>
      <use x="63.476562" xlink:href="#DejaVuSans-101"/>
      <use x="125" xlink:href="#DejaVuSans-110"/>
      <use x="188.378906" xlink:href="#DejaVuSans-116"/>
      <use x="227.587891" xlink:href="#DejaVuSans-70"/>
      <use x="277.857422" xlink:href="#DejaVuSans-114"/>
      <use x="316.720703" xlink:href="#DejaVuSans-111"/>
      <use x="377.902344" xlink:href="#DejaVuSans-109"/>
     </g>
    </g>
   </g>
   <g id="matplotlib.axis_2">
    <g id="ytick_1">
     <g id="line2d_26">
      <defs>
       <path d="M 0 0 
L -3.5 0 
" id="m81c1c134ce" style="stroke:#000000;stroke-width:0.8;"/>
      </defs>
      <g>
       <use style="stroke:#000000;stroke-width:0.8;" x="33.2875" xlink:href="#m81c1c134ce" y="224.64"/>
      </g>
     </g>
     <g id="text_27">
      <!-- 0 -->
      <g transform="translate(19.925 228.439219)scale(0.1 -0.1)">
       <use xlink:href="#DejaVuSans-48"/>
      </g>
     </g>
    </g>
    <g id="ytick_2">
     <g id="line2d_27">
      <g>
       <use style="stroke:#000000;stroke-width:0.8;" x="33.2875" xlink:href="#m81c1c134ce" y="187.792008"/>
      </g>
     </g>
     <g id="text_28">
      <!-- 100 -->
      <g transform="translate(7.2 191.591227)scale(0.1 -0.1)">
       <use xlink:href="#DejaVuSans-49"/>
       <use x="63.623047" xlink:href="#DejaVuSans-48"/>
       <use x="127.246094" xlink:href="#DejaVuSans-48"/>
      </g>
     </g>
    </g>
    <g id="ytick_3">
     <g id="line2d_28">
      <g>
       <use style="stroke:#000000;stroke-width:0.8;" x="33.2875" xlink:href="#m81c1c134ce" y="150.944016"/>
      </g>
     </g>
     <g id="text_29">
      <!-- 200 -->
      <g transform="translate(7.2 154.743235)scale(0.1 -0.1)">
       <use xlink:href="#DejaVuSans-50"/>
       <use x="63.623047" xlink:href="#DejaVuSans-48"/>
       <use x="127.246094" xlink:href="#DejaVuSans-48"/>
      </g>
     </g>
    </g>
    <g id="ytick_4">
     <g id="line2d_29">
      <g>
       <use style="stroke:#000000;stroke-width:0.8;" x="33.2875" xlink:href="#m81c1c134ce" y="114.096024"/>
      </g>
     </g>
     <g id="text_30">
      <!-- 300 -->
      <g transform="translate(7.2 117.895243)scale(0.1 -0.1)">
       <use xlink:href="#DejaVuSans-51"/>
       <use x="63.623047" xlink:href="#DejaVuSans-48"/>
       <use x="127.246094" xlink:href="#DejaVuSans-48"/>
      </g>
     </g>
    </g>
    <g id="ytick_5">
     <g id="line2d_30">
      <g>
       <use style="stroke:#000000;stroke-width:0.8;" x="33.2875" xlink:href="#m81c1c134ce" y="77.248033"/>
      </g>
     </g>
     <g id="text_31">
      <!-- 400 -->
      <g transform="translate(7.2 81.047251)scale(0.1 -0.1)">
       <use xlink:href="#DejaVuSans-52"/>
       <use x="63.623047" xlink:href="#DejaVuSans-48"/>
       <use x="127.246094" xlink:href="#DejaVuSans-48"/>
      </g>
     </g>
    </g>
    <g id="ytick_6">
     <g id="line2d_31">
      <g>
       <use style="stroke:#000000;stroke-width:0.8;" x="33.2875" xlink:href="#m81c1c134ce" y="40.400041"/>
      </g>
     </g>
     <g id="text_32">
      <!-- 500 -->
      <g transform="translate(7.2 44.199259)scale(0.1 -0.1)">
       <use xlink:href="#DejaVuSans-53"/>
       <use x="63.623047" xlink:href="#DejaVuSans-48"/>
       <use x="127.246094" xlink:href="#DejaVuSans-48"/>
      </g>
     </g>
    </g>
   </g>
   <g id="patch_28">
    <path d="M 33.2875 224.64 
L 33.2875 7.2 
" style="fill:none;stroke:#000000;stroke-linecap:square;stroke-linejoin:miter;stroke-width:0.8;"/>
   </g>
   <g id="patch_29">
    <path d="M 368.0875 224.64 
L 368.0875 7.2 
" style="fill:none;stroke:#000000;stroke-linecap:square;stroke-linejoin:miter;stroke-width:0.8;"/>
   </g>
   <g id="patch_30">
    <path d="M 33.2875 224.64 
L 368.0875 224.64 
" style="fill:none;stroke:#000000;stroke-linecap:square;stroke-linejoin:miter;stroke-width:0.8;"/>
   </g>
   <g id="patch_31">
    <path d="M 33.2875 7.2 
L 368.0875 7.2 
" style="fill:none;stroke:#000000;stroke-linecap:square;stroke-linejoin:miter;stroke-width:0.8;"/>
   </g>
  </g>
 </g>
 <defs>
  <clipPath id="p487c7bbf87">
   <rect height="217.44" width="334.8" x="33.2875" y="7.2"/>
  </clipPath>
 </defs>
</svg>
