<?xml version="1.0" standalone="no"?>
<!DOCTYPE svg PUBLIC "-//W3C//DTD SVG 20010904//EN"
 "http://www.w3.org/TR/2001/REC-SVG-20010904/DTD/svg10.dtd">
<svg version="1.0" xmlns="http://www.w3.org/2000/svg"
 width="512.000000pt" height="512.000000pt" viewBox="0 0 512.000000 512.000000"
 preserveAspectRatio="xMidYMid meet">
<metadata>
Created by potrace 1.14, written by Peter Selinger 2001-2017
</metadata>
<g transform="translate(0.000000,512.000000) scale(0.100000,-0.100000)"
fill="#000000" stroke="none">
<path d="M150 5099 c-25 -11 -61 -38 -81 -59 -74 -79 -69 49 -69 -1744 l0
-1611 24 -50 c12 -28 40 -65 61 -84 76 -67 41 -64 778 -64 460 0 667 -4 667
-11 0 -10 -479 -1454 -487 -1469 -2 -4 147 -6 333 -5 l337 3 82 245 82 245
683 0 683 0 82 -245 82 -245 337 -3 c186 -1 335 1 333 5 -8 15 -487 1459 -487
1469 0 7 208 10 654 11 500 0 665 3 699 13 61 17 124 72 153 134 l24 51 -1
1620 0 1620 -25 52 c-14 29 -42 66 -62 83 -78 64 95 60 -2486 59 -2324 0
-2352 -1 -2396 -20z m4764 -158 c14 -8 29 -24 33 -35 3 -12 7 -636 7 -1389 l1
-1367 -77 -1 c-100 0 -213 0 -235 0 -15 1 -18 12 -20 72 -3 83 -29 145 -82
191 -72 63 -68 63 -496 63 -437 0 -433 1 -503 -74 -51 -54 -65 -89 -70 -173
l-5 -78 -96 0 c-53 -1 -684 -1 -1403 0 l-1308 0 0 -84 0 -84 2138 -1 c1175 0
2142 -1 2147 -1 12 0 12 -242 1 -278 -18 -55 134 -52 -2386 -52 -2520 0 -2368
-3 -2386 52 -4 13 -8 80 -9 150 l-1 128 71 1 c38 0 113 1 165 2 l95 2 1 70 c0
39 -2 76 -4 82 -3 9 -35 13 -116 12 -61 0 -133 0 -161 0 l-50 1 1 1362 c1 750
2 1371 3 1381 1 20 33 50 62 57 11 3 1063 5 2339 5 1953 -1 2322 -3 2344 -14z
m-493 -2644 c26 -20 39 -53 39 -101 0 -43 -2 -46 -27 -46 -53 -1 -768 -1 -785
-1 -28 1 -18 104 13 137 l22 24 361 0 c268 -1 365 -4 377 -13z m-2391 -814 c0
-13 -436 -1309 -442 -1313 -5 -4 -256 -5 -305 -1 -6 1 78 267 209 659 l219
658 160 0 c87 1 159 -1 159 -3z m966 -245 l82 -248 -518 0 -518 0 80 243 c45
133 85 245 90 248 5 3 165 6 355 5 l346 -1 83 -247z m633 -409 c121 -363 216
-659 213 -660 -4 -1 -76 -2 -160 -3 l-152 -1 -15 40 c-16 44 -425 1273 -425
1278 0 1 72 3 160 3 l159 1 220 -658z m-468 -86 l28 -83 -629 0 -629 0 25 73
c13 39 26 77 28 82 2 7 192 11 576 10 l573 0 28 -82z"/>
<path d="M4333 4619 c-97 -18 -170 -87 -194 -183 -15 -60 -11 -63 78 -60 53 2
70 7 78 20 26 46 56 66 88 60 57 -11 87 -59 68 -109 -6 -15 -74 -73 -165 -142
l-156 -117 0 -104 0 -104 245 0 c135 0 245 3 246 8 7 44 3 145 -5 151 -6 5
-65 8 -131 8 -71 0 -118 3 -115 9 2 5 34 31 70 57 140 103 180 162 181 264 2
150 -141 270 -288 242z"/>
<path d="M495 3801 l0 -576 290 0 289 0 0 80 0 80 -205 0 -204 1 -3 165 -2
165 205 -1 c113 0 205 2 206 5 4 29 2 144 -3 152 -4 7 -75 11 -206 10 l-200
-2 -2 165 -1 165 206 0 c157 0 205 3 206 13 1 15 1 127 0 143 -1 9 -80 12
-289 11 l-287 -1 0 -575z"/>
<path d="M1407 4036 c-2 -6 -3 -42 -3 -81 l1 -70 324 -3 c203 -1 327 1 331 7
3 6 5 43 5 83 l-1 73 -326 1 c-231 1 -328 -2 -331 -10z"/>
<path d="M2399 4043 c-1 -4 -2 -43 -4 -85 -1 -58 1 -78 11 -78 7 0 26 -11 41
-24 l28 -24 1 -179 1 -178 82 -3 c44 -2 81 1 82 5 0 4 1 85 2 180 2 166 3 172
26 197 33 35 74 34 111 -3 l29 -29 0 -138 c0 -77 0 -156 0 -177 l1 -38 82 3
81 3 0 165 c-1 90 3 174 8 187 13 35 53 56 93 49 55 -10 67 -50 66 -204 -1
-70 -1 -144 -1 -164 l1 -38 80 0 c57 0 80 4 81 13 0 6 1 92 1 189 0 174 0 179
-27 234 -62 127 -201 173 -331 109 l-56 -27 -50 27 c-70 38 -145 38 -221 2
-64 -32 -62 -32 -95 -8 -15 10 -40 21 -57 25 -16 4 -38 9 -47 12 -10 3 -19 2
-19 -3z"/>
<path d="M3720 4033 c-70 -18 -106 -38 -154 -87 -65 -67 -90 -127 -93 -219 -2
-87 21 -158 73 -220 33 -40 107 -91 155 -106 42 -13 167 -22 174 -12 6 10 9
150 4 156 -3 2 -27 5 -54 5 -28 1 -64 6 -81 11 -59 18 -119 106 -109 161 16
81 29 103 86 137 25 15 51 21 95 21 l62 0 3 43 c2 23 2 60 -1 83 l-5 41 -52 0
c-28 -1 -75 -7 -103 -14z"/>
<path d="M1409 3716 c-1 -1 -3 -38 -4 -84 l-2 -82 331 2 331 3 0 78 c1 46 -3
78 -10 79 -9 1 -643 5 -646 4z"/>
</g>
</svg>
